<?xml version="1.0" encoding="utf-8"?>
<svg version="1.1" xmlns:xlink="http://www.w3.org/1999/xlink" width="13px" height="13px" viewBox="949 171  13 13" xmlns="http://www.w3.org/2000/svg">
  <path d="M 955.5 171  C 959.14 171  962 173.86  962 177.5  C 962 181.14  959.14 184  955.5 184  C 951.86 184  949 181.14  949 177.5  C 949 173.86  951.86 171  955.5 171  Z " fill-rule="nonzero" fill="#f0f0f0" stroke="none" />
  <path d="M 955.5 171.5  C 958.86 171.5  961.5 174.14  961.5 177.5  C 961.5 180.86  958.86 183.5  955.5 183.5  C 952.14 183.5  949.5 180.86  949.5 177.5  C 949.5 174.14  952.14 171.5  955.5 171.5  Z " stroke-width="1" stroke="#797979" fill="none" />
  <path d="M 955.5 180.75  C 953.68 180.75  952.25 179.32  952.25 177.5  C 952.25 175.68  953.68 174.25  955.5 174.25  C 957.32 174.25  958.75 175.68  958.75 177.5  C 958.75 179.32  957.32 180.75  955.5 180.75  " fill-rule="nonzero" fill="#797979" stroke="none" />
</svg>