<?xml version="1.0" encoding="utf-8"?>
<svg version="1.1" xmlns:xlink="http://www.w3.org/1999/xlink" width="13px" height="13px" viewBox="1131 171  13 13" xmlns="http://www.w3.org/2000/svg">
  <path d="M 1137.5 171  C 1141.14 171  1144 173.86  1144 177.5  C 1144 181.14  1141.14 184  1137.5 184  C 1133.86 184  1131 181.14  1131 177.5  C 1131 173.86  1133.86 171  1137.5 171  Z " fill-rule="nonzero" fill="#f0f0f0" stroke="none" />
  <path d="M 1137.5 171.5  C 1140.86 171.5  1143.5 174.14  1143.5 177.5  C 1143.5 180.86  1140.86 183.5  1137.5 183.5  C 1134.14 183.5  1131.5 180.86  1131.5 177.5  C 1131.5 174.14  1134.14 171.5  1137.5 171.5  Z " stroke-width="1" stroke="#797979" fill="none" />
  <path d="M 1137.5 180.75  C 1135.68 180.75  1134.25 179.32  1134.25 177.5  C 1134.25 175.68  1135.68 174.25  1137.5 174.25  C 1139.32 174.25  1140.75 175.68  1140.75 177.5  C 1140.75 179.32  1139.32 180.75  1137.5 180.75  " fill-rule="nonzero" fill="#797979" stroke="none" />
</svg>