<?xml version="1.0" encoding="utf-8"?>
<svg version="1.1" xmlns:xlink="http://www.w3.org/1999/xlink" width="28px" height="28px" xmlns="http://www.w3.org/2000/svg">
  <g transform="matrix(1 0 0 1 -949 -126 )">
    <path d="M 963 126  C 970.84 126  977 132.16  977 140  C 977 147.84  970.84 154  963 154  C 955.16 154  949 147.84  949 140  C 949 132.16  955.16 126  963 126  Z " fill-rule="nonzero" fill="#ffffff" stroke="none" />
    <path d="M 963 126.5  C 970.56 126.5  976.5 132.44  976.5 140  C 976.5 147.56  970.56 153.5  963 153.5  C 955.44 153.5  949.5 147.56  949.5 140  C 949.5 132.44  955.44 126.5  963 126.5  Z " stroke-width="1" stroke="#797979" fill="none" />
  </g>
</svg>