<?xml version="1.0" encoding="utf-8"?>
<svg version="1.1" xmlns:xlink="http://www.w3.org/1999/xlink" width="13px" height="13px" viewBox="1962 561  13 13" xmlns="http://www.w3.org/2000/svg">
  <path d="M 1968.5 561  C 1972.14 561  1975 563.86  1975 567.5  C 1975 571.14  1972.14 574  1968.5 574  C 1964.86 574  1962 571.14  1962 567.5  C 1962 563.86  1964.86 561  1968.5 561  Z " fill-rule="nonzero" fill="#ffffff" stroke="none" />
  <path d="M 1968.5 561.5  C 1971.86 561.5  1974.5 564.14  1974.5 567.5  C 1974.5 570.86  1971.86 573.5  1968.5 573.5  C 1965.14 573.5  1962.5 570.86  1962.5 567.5  C 1962.5 564.14  1965.14 561.5  1968.5 561.5  Z " stroke-width="1" stroke="#797979" fill="none" />
  <path d="M 1968.5 570.75  C 1966.68 570.75  1965.25 569.32  1965.25 567.5  C 1965.25 565.68  1966.68 564.25  1968.5 564.25  C 1970.32 564.25  1971.75 565.68  1971.75 567.5  C 1971.75 569.32  1970.32 570.75  1968.5 570.75  " fill-rule="nonzero" fill="#797979" stroke="none" />
</svg>