<?xml version="1.0" encoding="utf-8"?>
<svg version="1.1" xmlns:xlink="http://www.w3.org/1999/xlink" width="32px" height="32px" xmlns="http://www.w3.org/2000/svg">
  <g transform="matrix(1 0 0 1 -556 -63 )">
    <path d="M 572 63  C 580.96 63  588 70.03999999999999  588 79  C 588 87.96000000000001  580.96 95  572 95  C 563.04 95  556 87.96000000000001  556 79  C 556 70.03999999999999  563.04 63  572 63  Z " fill-rule="nonzero" fill="#ffffff" stroke="none" />
    <path d="M 572 63.5  C 580.68 63.5  587.5 70.32  587.5 79  C 587.5 87.68  580.68 94.5  572 94.5  C 563.32 94.5  556.5 87.68  556.5 79  C 556.5 70.32  563.32 63.5  572 63.5  Z " stroke-width="1" stroke="#797979" fill="none" />
  </g>
</svg>