<?xml version="1.0" encoding="utf-8"?>
<svg version="1.1" xmlns:xlink="http://www.w3.org/1999/xlink" width="52px" height="52px" xmlns="http://www.w3.org/2000/svg">
  <g transform="matrix(1 0 0 1 -18 -35 )">
    <path d="M 44 35  C 58.56 35  70 46.44  70 61  C 70 75.56  58.56 87  44 87  C 29.439999999999998 87  18 75.56  18 61  C 18 46.44  29.439999999999998 35  44 35  Z " fill-rule="nonzero" fill="#ffffff" stroke="none" />
    <path d="M 44 35.5  C 58.28 35.5  69.5 46.72  69.5 61  C 69.5 75.28  58.28 86.5  44 86.5  C 29.72 86.5  18.5 75.28  18.5 61  C 18.5 46.72  29.72 35.5  44 35.5  Z " stroke-width="1" stroke="#797979" fill="none" />
  </g>
</svg>