<?xml version="1.0" encoding="utf-8"?>
<svg version="1.1" xmlns:xlink="http://www.w3.org/1999/xlink" width="52px" height="52px" xmlns="http://www.w3.org/2000/svg">
  <g transform="matrix(1 0 0 1 -18 -70 )">
    <path d="M 44 70  C 58.56 70  70 81.44  70 96  C 70 110.56  58.56 122  44 122  C 29.439999999999998 122  18 110.56  18 96  C 18 81.44  29.439999999999998 70  44 70  Z " fill-rule="nonzero" fill="#ffffff" stroke="none" />
    <path d="M 44 70.5  C 58.28 70.5  69.5 81.72  69.5 96  C 69.5 110.28  58.28 121.5  44 121.5  C 29.72 121.5  18.5 110.28  18.5 96  C 18.5 81.72  29.72 70.5  44 70.5  Z " stroke-width="1" stroke="#797979" fill="none" />
  </g>
</svg>