<?xml version="1.0" encoding="utf-8"?>
<svg version="1.1" xmlns:xlink="http://www.w3.org/1999/xlink" width="18px" height="18px" xmlns="http://www.w3.org/2000/svg">
  <g transform="matrix(1 0 0 1 -137 -124 )">
    <path d="M 144.34264536939455 130.71884705062547  L 146 125.6180339887499  L 147.65735463060545 130.71884705062547  L 153.02066687806877 130.71884705062547  L 148.68165612373164 133.871322893124  L 150.3390107543371 138.97213595499957  L 146 135.81966011250105  L 141.6609892456629 138.97213595499957  L 143.31834387626836 133.871322893124  L 138.97933312193123 130.71884705062547  L 144.34264536939455 130.71884705062547  Z " fill-rule="nonzero" fill="#d7d7d7" stroke="none" />
    <path d="M 143.97937410539186 130.21884705062547  L 146 124  L 148.02062589460814 130.21884705062547  L 154.55950864665638 130.21884705062547  L 149.26944137602413 134.06230589874906  L 151.29006727063225 140.28115294937453  L 146 136.43769410125094  L 140.70993272936775 140.28115294937453  L 142.73055862397587 134.06230589874906  L 137.44049135334362 130.21884705062547  L 143.97937410539186 130.21884705062547  Z M 146 127.23606797749979  L 144.70591663339724 131.21884705062547  L 140.51817489051888 131.21884705062547  L 143.90612912856082 133.68033988749895  L 142.61204576195806 137.66311896062464  L 146 135.20162612375117  L 149.38795423804194 137.66311896062464  L 148.09387087143918 133.68033988749895  L 151.48182510948112 131.21884705062547  L 147.29408336660276 131.21884705062547  L 146 127.23606797749979  Z " fill-rule="nonzero" fill="#797979" stroke="none" />
  </g>
</svg>