<?xml version="1.0" encoding="utf-8"?>
<svg version="1.1" xmlns:xlink="http://www.w3.org/1999/xlink" width="95px" height="100px" xmlns="http://www.w3.org/2000/svg">
  <g transform="matrix(1 0 0 1 -40 -130 )">
    <path d="M 40 130  L 135 130  L 135 230  L 40 230  L 40 130  " fill-rule="nonzero" fill="#cccccc" stroke="none" />
    <path d="M 47 137  L 128 137  L 128 223  L 47 223  L 47 137  " fill-rule="nonzero" fill="#ffffff" stroke="none" />
    <path d="M 96.525 159.25  C 92.53500000000001 159.25  89.4 156.115  89.4 152.125  C 89.4 148.135  92.53500000000001 145  96.525 145  C 100.515 145  103.65 148.135  103.65 152.125  C 103.65 156.115  100.515 159.25  96.525 159.25  " fill-rule="nonzero" fill="#cccccc" stroke="none" />
    <path d="M 50 221  L 50 176.45  L 69 156.2  L 95.6 172.4  L 110.80000000000001 168.35  L 126 172.4  L 126 221  L 50 221  " fill-rule="nonzero" fill="#169bd5" stroke="none" />
  </g>
</svg>