<?xml version="1.0" encoding="utf-8"?>
<svg version="1.1" xmlns:xlink="http://www.w3.org/1999/xlink" width="25px" height="18px" xmlns="http://www.w3.org/2000/svg">
  <g transform="matrix(1 0 0 1 -610 -99 )">
    <path d="M 610 99  L 635 99  L 635 117  L 610 117  L 610 99  " fill-rule="nonzero" fill="#cccccc" stroke="none" />
    <path d="M 611 100  L 634 100  L 634 116  L 611 116  L 611 100  " fill-rule="nonzero" fill="#ffffff" stroke="none" />
    <path d="M 624.35 104.4  C 623.594 104.4  623 103.80600000000001  623 103.05000000000001  C 623 102.29400000000001  623.594 101.7  624.35 101.7  C 625.106 101.7  625.7 102.29400000000001  625.7 103.05000000000001  C 625.7 103.80600000000001  625.106 104.4  624.35 104.4  " fill-rule="nonzero" fill="#cccccc" stroke="none" />
    <path d="M 612 116  L 612 107.75  L 617.5 104  L 625.2 109.52  L 629.6 106.25  L 634 109.52  L 634 116  L 612 116  " fill-rule="nonzero" fill="#169bd5" stroke="none" />
  </g>
</svg>