<?xml version="1.0" encoding="utf-8"?>
<svg version="1.1" xmlns:xlink="http://www.w3.org/1999/xlink" width="151px" height="112px" xmlns="http://www.w3.org/2000/svg">
  <g transform="matrix(1 0 0 1 -602 -587 )">
    <path d="M 602 587  L 753 587  L 753 699  L 602 699  L 602 587  " fill-rule="nonzero" fill="#cccccc" stroke="none" />
    <path d="M 610 595  L 745 595  L 745 691  L 610 691  L 610 595  " fill-rule="nonzero" fill="#ffffff" stroke="none" />
    <path d="M 688.92 620.5999999999999  C 684.216 620.5999999999999  680.52 616.9039999999999  680.52 612.1999999999999  C 680.52 607.496  684.216 603.8  688.92 603.8  C 693.6239999999999 603.8  697.3199999999999 607.496  697.3199999999999 612.1999999999999  C 697.3199999999999 616.9039999999999  693.6239999999999 620.5999999999999  688.92 620.5999999999999  " fill-rule="nonzero" fill="#cccccc" stroke="none" />
    <path d="M 613 688  L 613 638.5  L 645.25 616  L 690.4 647.9470198675497  L 716.2 629.5  L 742 647.9470198675497  L 742 688  L 613 688  " fill-rule="nonzero" fill="#169bd5" stroke="none" />
  </g>
</svg>