<?xml version="1.0" encoding="utf-8"?>
<svg version="1.1" xmlns:xlink="http://www.w3.org/1999/xlink" width="90px" height="74px" xmlns="http://www.w3.org/2000/svg">
  <g transform="matrix(1 0 0 1 -30 -124 )">
    <path d="M 30 124  L 120 124  L 120 198  L 30 198  L 30 124  " fill-rule="nonzero" fill="#cccccc" stroke="none" />
    <path d="M 35 129  L 115 129  L 115 193  L 35 193  L 35 129  " fill-rule="nonzero" fill="#ffffff" stroke="none" />
    <path d="M 82.35000000000001 146.2  C 79.242 146.2  76.80000000000001 143.75799999999998  76.80000000000001 140.64999999999998  C 76.80000000000001 137.54199999999997  79.242 135.1  82.35000000000001 135.1  C 85.45800000000001 135.1  87.9 137.54199999999997  87.9 140.64999999999998  C 87.9 143.75799999999998  85.45800000000001 146.2  82.35000000000001 146.2  " fill-rule="nonzero" fill="#cccccc" stroke="none" />
    <path d="M 37 191  L 37 158  L 56 143  L 82.6 161.4  L 97.80000000000001 152  L 113 161.4  L 113 191  L 37 191  " fill-rule="nonzero" fill="#169bd5" stroke="none" />
  </g>
</svg>