<?xml version="1.0" encoding="utf-8"?>
<svg version="1.1" xmlns:xlink="http://www.w3.org/1999/xlink" width="112px" height="131px" xmlns="http://www.w3.org/2000/svg">
  <g transform="matrix(1 0 0 1 -586 -834 )">
    <path d="M 586 834  L 698 834  L 698 965  L 586 965  L 586 834  " fill-rule="nonzero" fill="#cccccc" stroke="none" />
    <path d="M 594 842  L 690 842  L 690 957  L 594 957  L 594 842  " fill-rule="nonzero" fill="#ffffff" stroke="none" />
    <path d="M 652.64 870.4499999999999  C 647.936 870.4499999999999  644.24 866.7539999999999  644.24 862.05  C 644.24 857.346  647.936 853.65  652.64 853.65  C 657.3439999999999 853.65  661.04 857.346  661.04 862.05  C 661.04 866.7539999999999  657.3439999999999 870.4499999999999  652.64 870.4499999999999  " fill-rule="nonzero" fill="#cccccc" stroke="none" />
    <path d="M 597 954  L 597 894.05  L 619.5 866.8  L 651 888.6  L 669 883.15  L 687 888.6  L 687 954  L 597 954  " fill-rule="nonzero" fill="#169bd5" stroke="none" />
  </g>
</svg>