<?xml version="1.0" encoding="utf-8"?>
<svg version="1.1" xmlns:xlink="http://www.w3.org/1999/xlink" width="18px" height="18px" xmlns="http://www.w3.org/2000/svg">
  <g transform="matrix(1 0 0 1 -708 -865 )">
    <path d="M 715.3426453693945 871.7188470506255  L 717 866.6180339887499  L 718.6573546306055 871.7188470506255  L 724.0206668780687 871.7188470506255  L 719.6816561237316 874.871322893124  L 721.3390107543371 879.9721359549995  L 717 876.8196601125011  L 712.6609892456629 879.9721359549995  L 714.3183438762684 874.871322893124  L 709.9793331219313 871.7188470506255  L 715.3426453693945 871.7188470506255  Z " fill-rule="nonzero" fill="#ffffff" stroke="none" />
    <path d="M 714.9793741053919 871.2188470506255  L 717 865  L 719.0206258946081 871.2188470506255  L 725.5595086466564 871.2188470506255  L 720.2694413760241 875.0623058987491  L 722.2900672706322 881.2811529493745  L 717 877.4376941012509  L 711.7099327293678 881.2811529493745  L 713.7305586239759 875.0623058987491  L 708.4404913533436 871.2188470506255  L 714.9793741053919 871.2188470506255  Z M 717 868.2360679774998  L 715.7059166333972 872.2188470506255  L 711.5181748905188 872.2188470506255  L 714.9061291285608 874.6803398874989  L 713.612045761958 878.6631189606246  L 717 876.2016261237511  L 720.387954238042 878.6631189606246  L 719.0938708714392 874.6803398874989  L 722.4818251094812 872.2188470506255  L 718.2940833666028 872.2188470506255  L 717 868.2360679774998  Z " fill-rule="nonzero" fill="#797979" stroke="none" />
  </g>
</svg>