<?xml version="1.0" encoding="utf-8"?>
<svg version="1.1" xmlns:xlink="http://www.w3.org/1999/xlink" width="112px" height="131px" xmlns="http://www.w3.org/2000/svg">
  <g transform="matrix(1 0 0 1 -586 -888 )">
    <path d="M 586 888  L 698 888  L 698 1019  L 586 1019  L 586 888  " fill-rule="nonzero" fill="#cccccc" stroke="none" />
    <path d="M 594 896  L 690 896  L 690 1011  L 594 1011  L 594 896  " fill-rule="nonzero" fill="#ffffff" stroke="none" />
    <path d="M 652.64 924.4499999999999  C 647.936 924.4499999999999  644.24 920.7539999999999  644.24 916.05  C 644.24 911.346  647.936 907.65  652.64 907.65  C 657.3439999999999 907.65  661.04 911.346  661.04 916.05  C 661.04 920.7539999999999  657.3439999999999 924.4499999999999  652.64 924.4499999999999  " fill-rule="nonzero" fill="#cccccc" stroke="none" />
    <path d="M 597 1008  L 597 948.05  L 619.5 920.8  L 651 942.6  L 669 937.15  L 687 942.6  L 687 1008  L 597 1008  " fill-rule="nonzero" fill="#169bd5" stroke="none" />
  </g>
</svg>