<?xml version="1.0" encoding="utf-8"?>
<svg version="1.1" xmlns:xlink="http://www.w3.org/1999/xlink" width="18px" height="18px" xmlns="http://www.w3.org/2000/svg">
  <g transform="matrix(1 0 0 1 -708 -919 )">
    <path d="M 715.3426453693945 925.7188470506255  L 717 920.6180339887499  L 718.6573546306055 925.7188470506255  L 724.0206668780687 925.7188470506255  L 719.6816561237316 928.871322893124  L 721.3390107543371 933.9721359549995  L 717 930.8196601125011  L 712.6609892456629 933.9721359549995  L 714.3183438762684 928.871322893124  L 709.9793331219313 925.7188470506255  L 715.3426453693945 925.7188470506255  Z " fill-rule="nonzero" fill="#ffffff" stroke="none" />
    <path d="M 714.9793741053919 925.2188470506255  L 717 919  L 719.0206258946081 925.2188470506255  L 725.5595086466564 925.2188470506255  L 720.2694413760241 929.0623058987491  L 722.2900672706322 935.2811529493745  L 717 931.4376941012509  L 711.7099327293678 935.2811529493745  L 713.7305586239759 929.0623058987491  L 708.4404913533436 925.2188470506255  L 714.9793741053919 925.2188470506255  Z M 717 922.2360679774998  L 715.7059166333972 926.2188470506255  L 711.5181748905188 926.2188470506255  L 714.9061291285608 928.6803398874989  L 713.612045761958 932.6631189606246  L 717 930.2016261237511  L 720.387954238042 932.6631189606246  L 719.0938708714392 928.6803398874989  L 722.4818251094812 926.2188470506255  L 718.2940833666028 926.2188470506255  L 717 922.2360679774998  Z " fill-rule="nonzero" fill="#797979" stroke="none" />
  </g>
</svg>