<?xml version="1.0" encoding="utf-8"?>
<svg version="1.1" xmlns:xlink="http://www.w3.org/1999/xlink" width="25px" height="18px" xmlns="http://www.w3.org/2000/svg">
  <g transform="matrix(1 0 0 1 -26 -99 )">
    <path d="M 26 99  L 51 99  L 51 117  L 26 117  L 26 99  " fill-rule="nonzero" fill="#cccccc" stroke="none" />
    <path d="M 27 100  L 50 100  L 50 116  L 27 116  L 27 100  " fill-rule="nonzero" fill="#ffffff" stroke="none" />
    <path d="M 40.35 104.4  C 39.594 104.4  39 103.80600000000001  39 103.05000000000001  C 39 102.29400000000001  39.594 101.7  40.35 101.7  C 41.106 101.7  41.7 102.29400000000001  41.7 103.05000000000001  C 41.7 103.80600000000001  41.106 104.4  40.35 104.4  " fill-rule="nonzero" fill="#cccccc" stroke="none" />
    <path d="M 28 116  L 28 107.75  L 33.5 104  L 41.2 109.52  L 45.6 106.25  L 50 109.52  L 50 116  L 28 116  " fill-rule="nonzero" fill="#169bd5" stroke="none" />
  </g>
</svg>