<?xml version="1.0" encoding="utf-8"?>
<svg version="1.1" xmlns:xlink="http://www.w3.org/1999/xlink" width="12px" height="12px" xmlns="http://www.w3.org/2000/svg">
  <g transform="matrix(1 0 0 1 -177 -286 )">
    <path d="M 183 286  C 186.36 286  189 288.64  189 292  C 189 295.36  186.36 298  183 298  C 179.64 298  177 295.36  177 292  C 177 288.64  179.64 286  183 286  Z " fill-rule="nonzero" fill="#ffffff" stroke="none" />
    <path d="M 183 286.5  C 186.08 286.5  188.5 288.92  188.5 292  C 188.5 295.08  186.08 297.5  183 297.5  C 179.92 297.5  177.5 295.08  177.5 292  C 177.5 288.92  179.92 286.5  183 286.5  Z " stroke-width="1" stroke="#797979" fill="none" />
  </g>
</svg>