<?xml version="1.0" encoding="utf-8"?>
<svg version="1.1" xmlns:xlink="http://www.w3.org/1999/xlink" width="15px" height="18px" xmlns="http://www.w3.org/2000/svg">
  <g transform="matrix(1 0 0 1 -586 -9 )">
    <path d="M 593.5 26.102000869140515  C 590.7 21.947385150240315  586.5 19.4546157189002  586.5 15.3  C 586.5 13.145714285714284  587.9 9.5  593.5 9.5  C 599.1 9.5  600.5 13.145714285714284  600.5 15.3  C 600.5 19.4546157189002  596.3 21.947385150240315  593.5 26.102000869140515  Z " fill-rule="nonzero" fill="#ffffff" stroke="none" />
    <path d="M 593.5 27  C 590.5 22.5  586 19.799999999999997  586 15.3  C 586 12.959999999999999  587.5 9  593.5 9  C 599.5 9  601 12.959999999999999  601 15.3  C 601 19.799999999999997  596.5 22.5  593.5 27  Z M 593.5 25.204001738281033  C 596.1 21.394770300480634  600 19.109231437800396  600 15.3  C 600 13.331428571428571  598.7 10  593.5 10  C 588.3 10  587 13.331428571428571  587 15.3  C 587 19.109231437800396  590.9 21.394770300480634  593.5 25.204001738281033  Z " fill-rule="nonzero" fill="#797979" stroke="none" />
  </g>
</svg>