<?xml version="1.0" encoding="utf-8"?>
<svg version="1.1" xmlns:xlink="http://www.w3.org/1999/xlink" width="53px" height="34px" xmlns="http://www.w3.org/2000/svg">
  <g transform="matrix(1 0 0 1 -586 -95 )">
    <path d="M 586 95  L 639 95  L 639 129  L 586 129  L 586 95  " fill-rule="nonzero" fill="#cccccc" stroke="none" />
    <path d="M 588 97  L 637 97  L 637 127  L 588 127  L 588 97  " fill-rule="nonzero" fill="#ffffff" stroke="none" />
    <path d="M 616.1099999999999 105.19999999999999  C 614.6819999999999 105.19999999999999  613.56 104.07799999999999  613.56 102.64999999999999  C 613.56 101.222  614.6819999999999 100.1  616.1099999999999 100.1  C 617.5379999999999 100.1  618.66 101.222  618.66 102.64999999999999  C 618.66 104.07799999999999  617.5379999999999 105.19999999999999  616.1099999999999 105.19999999999999  " fill-rule="nonzero" fill="#cccccc" stroke="none" />
    <path d="M 589 126  L 589 110.6  L 600.75 103.6  L 617.2 115.22264150943397  L 626.6 107.8  L 636 115.22264150943397  L 636 126  L 589 126  " fill-rule="nonzero" fill="#169bd5" stroke="none" />
  </g>
</svg>