<?xml version="1.0" encoding="utf-8"?>
<svg version="1.1" xmlns:xlink="http://www.w3.org/1999/xlink" width="27px" height="18px" xmlns="http://www.w3.org/2000/svg">
  <g transform="matrix(1 0 0 1 -577 -391 )">
    <path d="M 577 391  L 604 391  L 604 409  L 577 409  L 577 391  " fill-rule="nonzero" fill="#cccccc" stroke="none" />
    <path d="M 578 392  L 603 392  L 603 408  L 578 408  L 578 392  " fill-rule="nonzero" fill="#ffffff" stroke="none" />
    <path d="M 592.39 396.4  C 591.634 396.4  591.04 395.806  591.04 395.04999999999995  C 591.04 394.294  591.634 393.7  592.39 393.7  C 593.146 393.7  593.74 394.294  593.74 395.04999999999995  C 593.74 395.806  593.146 396.4  592.39 396.4  " fill-rule="nonzero" fill="#cccccc" stroke="none" />
    <path d="M 579 408  L 579 399.75  L 585 396  L 593.4 402  L 598.2 398.25  L 603 402  L 603 408  L 579 408  " fill-rule="nonzero" fill="#169bd5" stroke="none" />
  </g>
</svg>