<?xml version="1.0" encoding="utf-8"?>
<svg version="1.1" xmlns:xlink="http://www.w3.org/1999/xlink" width="27px" height="18px" xmlns="http://www.w3.org/2000/svg">
  <g transform="matrix(1 0 0 1 -577 -382 )">
    <path d="M 577 382  L 604 382  L 604 400  L 577 400  L 577 382  " fill-rule="nonzero" fill="#cccccc" stroke="none" />
    <path d="M 578 383  L 603 383  L 603 399  L 578 399  L 578 383  " fill-rule="nonzero" fill="#ffffff" stroke="none" />
    <path d="M 592.39 387.4  C 591.634 387.4  591.04 386.806  591.04 386.04999999999995  C 591.04 385.294  591.634 384.7  592.39 384.7  C 593.146 384.7  593.74 385.294  593.74 386.04999999999995  C 593.74 386.806  593.146 387.4  592.39 387.4  " fill-rule="nonzero" fill="#cccccc" stroke="none" />
    <path d="M 579 399  L 579 390.75  L 585 387  L 593.4 393  L 598.2 389.25  L 603 393  L 603 399  L 579 399  " fill-rule="nonzero" fill="#169bd5" stroke="none" />
  </g>
</svg>