<?xml version="1.0" encoding="utf-8"?>
<svg version="1.1" xmlns:xlink="http://www.w3.org/1999/xlink" width="112px" height="131px" xmlns="http://www.w3.org/2000/svg">
  <g transform="matrix(1 0 0 1 -18 -840 )">
    <path d="M 18 840  L 130 840  L 130 971  L 18 971  L 18 840  " fill-rule="nonzero" fill="#cccccc" stroke="none" />
    <path d="M 26 848  L 122 848  L 122 963  L 26 963  L 26 848  " fill-rule="nonzero" fill="#ffffff" stroke="none" />
    <path d="M 84.64000000000001 876.4499999999999  C 79.936 876.4499999999999  76.24000000000001 872.7539999999999  76.24000000000001 868.05  C 76.24000000000001 863.346  79.936 859.65  84.64000000000001 859.65  C 89.34400000000001 859.65  93.04 863.346  93.04 868.05  C 93.04 872.7539999999999  89.34400000000001 876.4499999999999  84.64000000000001 876.4499999999999  " fill-rule="nonzero" fill="#cccccc" stroke="none" />
    <path d="M 29 960  L 29 900.05  L 51.5 872.8  L 83 894.6  L 101 889.15  L 119 894.6  L 119 960  L 29 960  " fill-rule="nonzero" fill="#169bd5" stroke="none" />
  </g>
</svg>