<?xml version="1.0" encoding="utf-8"?>
<svg version="1.1" xmlns:xlink="http://www.w3.org/1999/xlink" width="112px" height="131px" xmlns="http://www.w3.org/2000/svg">
  <g transform="matrix(1 0 0 1 -1353 -732 )">
    <path d="M 1353 732  L 1465 732  L 1465 863  L 1353 863  L 1353 732  " fill-rule="nonzero" fill="#cccccc" stroke="none" />
    <path d="M 1361 740  L 1457 740  L 1457 855  L 1361 855  L 1361 740  " fill-rule="nonzero" fill="#ffffff" stroke="none" />
    <path d="M 1419.6399999999999 768.4499999999999  C 1414.936 768.4499999999999  1411.24 764.7539999999999  1411.24 760.05  C 1411.24 755.346  1414.936 751.65  1419.6399999999999 751.65  C 1424.3439999999998 751.65  1428.04 755.346  1428.04 760.05  C 1428.04 764.7539999999999  1424.3439999999998 768.4499999999999  1419.6399999999999 768.4499999999999  " fill-rule="nonzero" fill="#cccccc" stroke="none" />
    <path d="M 1364 852  L 1364 792.05  L 1386.5 764.8  L 1418 786.6  L 1436 781.15  L 1454 786.6  L 1454 852  L 1364 852  " fill-rule="nonzero" fill="#169bd5" stroke="none" />
  </g>
</svg>