<?xml version="1.0" encoding="utf-8"?>
<svg version="1.1" xmlns:xlink="http://www.w3.org/1999/xlink" width="18px" height="18px" xmlns="http://www.w3.org/2000/svg">
  <g transform="matrix(1 0 0 1 -1475 -763 )">
    <path d="M 1482.3426453693946 769.7188470506255  L 1484 764.6180339887499  L 1485.6573546306054 769.7188470506255  L 1491.0206668780688 769.7188470506255  L 1486.6816561237317 772.871322893124  L 1488.339010754337 777.9721359549995  L 1484 774.8196601125011  L 1479.660989245663 777.9721359549995  L 1481.3183438762683 772.871322893124  L 1476.9793331219312 769.7188470506255  L 1482.3426453693946 769.7188470506255  Z " fill-rule="nonzero" fill="#ffffff" stroke="none" />
    <path d="M 1481.9793741053918 769.2188470506255  L 1484 763  L 1486.0206258946082 769.2188470506255  L 1492.5595086466565 769.2188470506255  L 1487.2694413760241 773.0623058987491  L 1489.2900672706323 779.2811529493745  L 1484 775.4376941012509  L 1478.7099327293677 779.2811529493745  L 1480.7305586239759 773.0623058987491  L 1475.4404913533435 769.2188470506255  L 1481.9793741053918 769.2188470506255  Z M 1484 766.2360679774998  L 1482.7059166333972 770.2188470506255  L 1478.5181748905188 770.2188470506255  L 1481.906129128561 772.6803398874989  L 1480.6120457619581 776.6631189606246  L 1484 774.2016261237511  L 1487.3879542380419 776.6631189606246  L 1486.093870871439 772.6803398874989  L 1489.4818251094812 770.2188470506255  L 1485.2940833666028 770.2188470506255  L 1484 766.2360679774998  Z " fill-rule="nonzero" fill="#797979" stroke="none" />
  </g>
</svg>