<?xml version="1.0" encoding="utf-8"?>
<svg version="1.1" xmlns:xlink="http://www.w3.org/1999/xlink" width="258px" height="94px" xmlns="http://www.w3.org/2000/svg">
  <g transform="matrix(1 0 0 1 -579 -511 )">
    <path d="M 579 511  L 837 511  L 837 605  L 579 605  L 579 511  " fill-rule="nonzero" fill="#cccccc" stroke="none" />
    <path d="M 586 518  L 830 518  L 830 598  L 586 598  L 586 518  " fill-rule="nonzero" fill="#ffffff" stroke="none" />
    <path d="M 720.21 539.2  C 716.262 539.2  713.16 536.0980000000001  713.16 532.1500000000001  C 713.16 528.202  716.262 525.1  720.21 525.1  C 724.158 525.1  727.26 528.202  727.26 532.1500000000001  C 727.26 536.0980000000001  724.158 539.2  720.21 539.2  " fill-rule="nonzero" fill="#cccccc" stroke="none" />
    <path d="M 589 596  L 589 554.75  L 648.75 536  L 732.4 579.6046511627907  L 780.2 547.25  L 828 579.6046511627907  L 828 596  L 589 596  " fill-rule="nonzero" fill="#169bd5" stroke="none" />
  </g>
</svg>