<?xml version="1.0" encoding="utf-8"?>
<svg version="1.1" xmlns:xlink="http://www.w3.org/1999/xlink" width="20px" height="18px" xmlns="http://www.w3.org/2000/svg">
  <g transform="matrix(1 0 0 1 -584 -654 )">
    <path d="M 592.1056583817553 660.7188470506255  L 594 655.4716814395937  L 595.8943416182447 660.7188470506255  L 601.8333957118704 660.7188470506255  L 597.028600019615 663.8606466185458  L 598.9003777700658 669.0453122295777  L 594 665.8410126616573  L 589.0996222299342 669.0453122295777  L 590.971399980385 663.8606466185458  L 586.1666042881296 660.7188470506255  L 592.1056583817553 660.7188470506255  Z " fill-rule="nonzero" fill="#ffffff" stroke="none" />
    <path d="M 591.7548601171021 660.2188470506255  L 594 654  L 596.2451398828979 660.2188470506255  L 603.5105651629515 660.2188470506255  L 597.6327126400269 664.0623058987491  L 599.8778525229247 670.2811529493745  L 594 666.4376941012509  L 588.1221474770753 670.2811529493745  L 590.3672873599731 664.0623058987491  L 584.4894348370485 660.2188470506255  L 591.7548601171021 660.2188470506255  Z M 594 656.9433628791874  L 592.4564566464086 661.2188470506255  L 587.8437737392107 661.2188470506255  L 591.5755126007966 663.6589873383427  L 590.0770969827931 667.8094715097809  L 594 665.2443312220637  L 597.9229030172069 667.8094715097809  L 596.4244873992034 663.6589873383427  L 600.1562262607893 661.2188470506255  L 595.5435433535914 661.2188470506255  L 594 656.9433628791874  Z " fill-rule="nonzero" fill="#797979" stroke="none" />
  </g>
</svg>