<?xml version="1.0" encoding="utf-8"?>
<svg version="1.1" xmlns:xlink="http://www.w3.org/1999/xlink" width="151px" height="112px" xmlns="http://www.w3.org/2000/svg">
  <g transform="matrix(1 0 0 1 -18 -587 )">
    <path d="M 18 587  L 169 587  L 169 699  L 18 699  L 18 587  " fill-rule="nonzero" fill="#cccccc" stroke="none" />
    <path d="M 26 595  L 161 595  L 161 691  L 26 691  L 26 595  " fill-rule="nonzero" fill="#ffffff" stroke="none" />
    <path d="M 104.91999999999999 620.5999999999999  C 100.216 620.5999999999999  96.52 616.9039999999999  96.52 612.1999999999999  C 96.52 607.496  100.216 603.8  104.91999999999999 603.8  C 109.624 603.8  113.32 607.496  113.32 612.1999999999999  C 113.32 616.9039999999999  109.624 620.5999999999999  104.91999999999999 620.5999999999999  " fill-rule="nonzero" fill="#cccccc" stroke="none" />
    <path d="M 29 688  L 29 638.5  L 61.25 616  L 106.39999999999999 647.9470198675497  L 132.2 629.5  L 158 647.9470198675497  L 158 688  L 29 688  " fill-rule="nonzero" fill="#169bd5" stroke="none" />
  </g>
</svg>