<?xml version="1.0" encoding="utf-8"?>
<svg version="1.1" xmlns:xlink="http://www.w3.org/1999/xlink" width="37px" height="25px" xmlns="http://www.w3.org/2000/svg">
  <g transform="matrix(1 0 0 1 -594 -708 )">
    <path d="M 594 708  L 631 708  L 631 733  L 594 733  L 594 708  " fill-rule="nonzero" fill="#cccccc" stroke="none" />
    <path d="M 596 710  L 629 710  L 629 731  L 596 731  L 596 710  " fill-rule="nonzero" fill="#ffffff" stroke="none" />
    <path d="M 615.115 715.5  C 614.065 715.5  613.24 714.675  613.24 713.625  C 613.24 712.575  614.065 711.75  615.115 711.75  C 616.165 711.75  616.99 712.575  616.99 713.625  C 616.99 714.675  616.165 715.5  615.115 715.5  " fill-rule="nonzero" fill="#cccccc" stroke="none" />
    <path d="M 597 731  L 597 720  L 605 715  L 616.2 722.8918918918919  L 622.6 718  L 629 722.8918918918919  L 629 731  L 597 731  " fill-rule="nonzero" fill="#169bd5" stroke="none" />
  </g>
</svg>