<?xml version="1.0" encoding="utf-8"?>
<svg version="1.1" xmlns:xlink="http://www.w3.org/1999/xlink" width="37px" height="25px" xmlns="http://www.w3.org/2000/svg">
  <g transform="matrix(1 0 0 1 -594 -762 )">
    <path d="M 594 762  L 631 762  L 631 787  L 594 787  L 594 762  " fill-rule="nonzero" fill="#cccccc" stroke="none" />
    <path d="M 596 764  L 629 764  L 629 785  L 596 785  L 596 764  " fill-rule="nonzero" fill="#ffffff" stroke="none" />
    <path d="M 615.115 769.5  C 614.065 769.5  613.24 768.675  613.24 767.625  C 613.24 766.575  614.065 765.75  615.115 765.75  C 616.165 765.75  616.99 766.575  616.99 767.625  C 616.99 768.675  616.165 769.5  615.115 769.5  " fill-rule="nonzero" fill="#cccccc" stroke="none" />
    <path d="M 597 785  L 597 774  L 605 769  L 616.2 776.8918918918919  L 622.6 772  L 629 776.8918918918919  L 629 785  L 597 785  " fill-rule="nonzero" fill="#169bd5" stroke="none" />
  </g>
</svg>