<?xml version="1.0" encoding="utf-8"?>
<svg version="1.1" xmlns:xlink="http://www.w3.org/1999/xlink" width="53px" height="34px" xmlns="http://www.w3.org/2000/svg">
  <g transform="matrix(1 0 0 1 -1353 -95 )">
    <path d="M 1353 95  L 1406 95  L 1406 129  L 1353 129  L 1353 95  " fill-rule="nonzero" fill="#cccccc" stroke="none" />
    <path d="M 1355 97  L 1404 97  L 1404 127  L 1355 127  L 1355 97  " fill-rule="nonzero" fill="#ffffff" stroke="none" />
    <path d="M 1383.11 105.19999999999999  C 1381.682 105.19999999999999  1380.56 104.07799999999999  1380.56 102.64999999999999  C 1380.56 101.222  1381.682 100.1  1383.11 100.1  C 1384.5379999999998 100.1  1385.6599999999999 101.222  1385.6599999999999 102.64999999999999  C 1385.6599999999999 104.07799999999999  1384.5379999999998 105.19999999999999  1383.11 105.19999999999999  " fill-rule="nonzero" fill="#cccccc" stroke="none" />
    <path d="M 1356 126  L 1356 110.6  L 1367.75 103.6  L 1384.2 115.22264150943397  L 1393.6 107.8  L 1403 115.22264150943397  L 1403 126  L 1356 126  " fill-rule="nonzero" fill="#169bd5" stroke="none" />
  </g>
</svg>