<?xml version="1.0" encoding="utf-8"?>
<svg version="1.1" xmlns:xlink="http://www.w3.org/1999/xlink" width="27px" height="18px" xmlns="http://www.w3.org/2000/svg">
  <g transform="matrix(1 0 0 1 -1344 -289 )">
    <path d="M 1344 289  L 1371 289  L 1371 307  L 1344 307  L 1344 289  " fill-rule="nonzero" fill="#cccccc" stroke="none" />
    <path d="M 1345 290  L 1370 290  L 1370 306  L 1345 306  L 1345 290  " fill-rule="nonzero" fill="#ffffff" stroke="none" />
    <path d="M 1359.3899999999999 294.4  C 1358.634 294.4  1358.04 293.806  1358.04 293.04999999999995  C 1358.04 292.294  1358.634 291.7  1359.3899999999999 291.7  C 1360.146 291.7  1360.74 292.294  1360.74 293.04999999999995  C 1360.74 293.806  1360.146 294.4  1359.3899999999999 294.4  " fill-rule="nonzero" fill="#cccccc" stroke="none" />
    <path d="M 1346 306  L 1346 297.75  L 1352 294  L 1360.4 300  L 1365.2 296.25  L 1370 300  L 1370 306  L 1346 306  " fill-rule="nonzero" fill="#169bd5" stroke="none" />
  </g>
</svg>