<?xml version="1.0" encoding="utf-8"?>
<svg version="1.1" xmlns:xlink="http://www.w3.org/1999/xlink" width="300px" height="66px" xmlns="http://www.w3.org/2000/svg">
  <g transform="matrix(1 0 0 1 -36 -1058 )">
    <path d="M 36 1058  L 336 1058  L 336 1124  L 36 1124  L 36 1058  " fill-rule="nonzero" fill="#cccccc" stroke="none" />
    <path d="M 41 1063  L 331 1063  L 331 1119  L 41 1119  L 41 1063  " fill-rule="nonzero" fill="#ffffff" stroke="none" />
    <path d="M 196.95 1077.8000000000002  C 194.178 1077.8000000000002  192 1075.622  192 1072.8500000000001  C 192 1070.0780000000002  194.178 1067.9  196.95 1067.9  C 199.722 1067.9  201.9 1070.0780000000002  201.9 1072.8500000000001  C 201.9 1075.622  199.722 1077.8000000000002  196.95 1077.8000000000002  " fill-rule="nonzero" fill="#cccccc" stroke="none" />
    <path d="M 43 1118  L 43 1088.85  L 114.75 1075.6  L 215.2 1111.004  L 272.6 1083.55  L 330 1111.004  L 330 1118  L 43 1118  " fill-rule="nonzero" fill="#169bd5" stroke="none" />
  </g>
</svg>