<?xml version="1.0" encoding="utf-8"?>
<svg version="1.1" xmlns:xlink="http://www.w3.org/1999/xlink" width="258px" height="94px" xmlns="http://www.w3.org/2000/svg">
  <g transform="matrix(1 0 0 1 -1346 -409 )">
    <path d="M 1346 409  L 1604 409  L 1604 503  L 1346 503  L 1346 409  " fill-rule="nonzero" fill="#cccccc" stroke="none" />
    <path d="M 1353 416  L 1597 416  L 1597 496  L 1353 496  L 1353 416  " fill-rule="nonzero" fill="#ffffff" stroke="none" />
    <path d="M 1487.21 437.20000000000005  C 1483.2620000000002 437.20000000000005  1480.16 434.098  1480.16 430.15000000000003  C 1480.16 426.20200000000006  1483.2620000000002 423.1  1487.21 423.1  C 1491.158 423.1  1494.26 426.20200000000006  1494.26 430.15000000000003  C 1494.26 434.098  1491.158 437.20000000000005  1487.21 437.20000000000005  " fill-rule="nonzero" fill="#cccccc" stroke="none" />
    <path d="M 1356 494  L 1356 452.75  L 1415.75 434  L 1499.4 477.6046511627907  L 1547.2 445.25  L 1595 477.6046511627907  L 1595 494  L 1356 494  " fill-rule="nonzero" fill="#169bd5" stroke="none" />
  </g>
</svg>