<?xml version="1.0" encoding="utf-8"?>
<svg version="1.1" xmlns:xlink="http://www.w3.org/1999/xlink" width="20px" height="18px" xmlns="http://www.w3.org/2000/svg">
  <g transform="matrix(1 0 0 1 -1351 -552 )">
    <path d="M 1359.1056583817553 558.7188470506255  L 1361 553.4716814395937  L 1362.8943416182447 558.7188470506255  L 1368.8333957118705 558.7188470506255  L 1364.0286000196152 561.8606466185458  L 1365.900377770066 567.0453122295777  L 1361 563.8410126616573  L 1356.099622229934 567.0453122295777  L 1357.9713999803848 561.8606466185458  L 1353.1666042881295 558.7188470506255  L 1359.1056583817553 558.7188470506255  Z " fill-rule="nonzero" fill="#ffffff" stroke="none" />
    <path d="M 1358.754860117102 558.2188470506255  L 1361 552  L 1363.245139882898 558.2188470506255  L 1370.5105651629515 558.2188470506255  L 1364.6327126400267 562.0623058987491  L 1366.8778525229247 568.2811529493745  L 1361 564.4376941012509  L 1355.1221474770753 568.2811529493745  L 1357.3672873599733 562.0623058987491  L 1351.4894348370485 558.2188470506255  L 1358.754860117102 558.2188470506255  Z M 1361 554.9433628791874  L 1359.4564566464085 559.2188470506255  L 1354.8437737392107 559.2188470506255  L 1358.5755126007966 561.6589873383427  L 1357.0770969827931 565.8094715097809  L 1361 563.2443312220637  L 1364.9229030172069 565.8094715097809  L 1363.4244873992034 561.6589873383427  L 1367.1562262607893 559.2188470506255  L 1362.5435433535915 559.2188470506255  L 1361 554.9433628791874  Z " fill-rule="nonzero" fill="#797979" stroke="none" />
  </g>
</svg>