<?xml version="1.0" encoding="utf-8"?>
<svg version="1.1" xmlns:xlink="http://www.w3.org/1999/xlink" width="34px" height="42px" xmlns="http://www.w3.org/2000/svg">
  <g transform="matrix(1 0 0 1 -725 -164 )">
    <path d="M 742 205.0847758218734  C 735.4 194.93678512115287  725.5 188.84799070072054  725.5 178.7  C 725.5 173.4257142857143  728.8 164.5  742 164.5  C 755.2 164.5  758.5 173.4257142857143  758.5 178.7  C 758.5 188.84799070072054  748.6 194.93678512115287  742 205.0847758218734  Z " fill-rule="nonzero" fill="#d7d7d7" stroke="none" />
    <path d="M 742 206  C 735.2 195.5  725 189.2  725 178.7  C 725 173.24  728.4 164  742 164  C 755.6 164  759 173.24  759 178.7  C 759 189.2  748.8 195.5  742 206  Z M 742 204.1695516437468  C 748.4 194.3735702423057  758 188.49598140144107  758 178.7  C 758 173.61142857142858  754.8 165  742 165  C 729.2 165  726 173.61142857142858  726 178.7  C 726 188.49598140144107  735.6 194.3735702423057  742 204.1695516437468  Z " fill-rule="nonzero" fill="#797979" stroke="none" />
  </g>
</svg>