<?xml version="1.0" encoding="utf-8"?>
<svg version="1.1" xmlns:xlink="http://www.w3.org/1999/xlink" width="26px" height="32px" xmlns="http://www.w3.org/2000/svg">
  <g transform="matrix(1 0 0 1 -672 -164 )">
    <path d="M 685 195.0869841612666  C 680 187.438144099241  672.5 182.84884006202563  672.5 175.2  C 672.5 171.22571428571428  675 164.5  685 164.5  C 695 164.5  697.5 171.22571428571428  697.5 175.2  C 697.5 182.84884006202563  690 187.438144099241  685 195.0869841612666  Z " fill-rule="nonzero" fill="#ffffff" stroke="none" />
    <path d="M 685 196  C 679.8 188  672 183.2  672 175.2  C 672 171.04  674.6 164  685 164  C 695.4 164  698 171.04  698 175.2  C 698 183.2  690.2 188  685 196  Z M 685 194.17396832253323  C 689.8 186.87628819848197  697 182.49768012405124  697 175.2  C 697 171.4114285714286  694.6 165  685 165  C 675.4 165  673 171.4114285714286  673 175.2  C 673 182.49768012405124  680.2 186.87628819848197  685 194.17396832253323  Z " fill-rule="nonzero" fill="#797979" stroke="none" />
  </g>
</svg>