<?xml version="1.0" encoding="utf-8"?>
<svg version="1.1" xmlns:xlink="http://www.w3.org/1999/xlink" width="37px" height="25px" xmlns="http://www.w3.org/2000/svg">
  <g transform="matrix(1 0 0 1 -1361 -606 )">
    <path d="M 1361 606  L 1398 606  L 1398 631  L 1361 631  L 1361 606  " fill-rule="nonzero" fill="#cccccc" stroke="none" />
    <path d="M 1363 608  L 1396 608  L 1396 629  L 1363 629  L 1363 608  " fill-rule="nonzero" fill="#ffffff" stroke="none" />
    <path d="M 1382.115 613.5  C 1381.065 613.5  1380.24 612.675  1380.24 611.625  C 1380.24 610.575  1381.065 609.75  1382.115 609.75  C 1383.165 609.75  1383.99 610.575  1383.99 611.625  C 1383.99 612.675  1383.165 613.5  1382.115 613.5  " fill-rule="nonzero" fill="#cccccc" stroke="none" />
    <path d="M 1364 629  L 1364 618  L 1372 613  L 1383.2 620.8918918918919  L 1389.6 616  L 1396 620.8918918918919  L 1396 629  L 1364 629  " fill-rule="nonzero" fill="#169bd5" stroke="none" />
  </g>
</svg>