<?xml version="1.0" encoding="utf-8"?>
<svg version="1.1" xmlns:xlink="http://www.w3.org/1999/xlink" width="75px" height="61px" xmlns="http://www.w3.org/2000/svg">
  <g transform="matrix(1 0 0 1 -586 -289 )">
    <path d="M 586 289  L 661 289  L 661 350  L 586 350  L 586 289  " fill-rule="nonzero" fill="#cccccc" stroke="none" />
    <path d="M 590 293  L 657 293  L 657 346  L 590 346  L 590 293  " fill-rule="nonzero" fill="#ffffff" stroke="none" />
    <path d="M 629.575 307.29999999999995  C 627.013 307.29999999999995  625 305.287  625 302.72499999999997  C 625 300.16299999999995  627.013 298.15  629.575 298.15  C 632.1370000000001 298.15  634.15 300.16299999999995  634.15 302.72499999999997  C 634.15 305.287  632.1370000000001 307.29999999999995  629.575 307.29999999999995  " fill-rule="nonzero" fill="#cccccc" stroke="none" />
    <path d="M 592 345  L 592 317.5  L 608 305  L 630.4 320.6  L 643.2 312.5  L 656 320.6  L 656 345  L 592 345  " fill-rule="nonzero" fill="#169bd5" stroke="none" />
  </g>
</svg>