<?xml version="1.0" encoding="utf-8"?>
<svg version="1.1" xmlns:xlink="http://www.w3.org/1999/xlink" width="300px" height="66px" xmlns="http://www.w3.org/2000/svg">
  <g transform="matrix(1 0 0 1 -803 -959 )">
    <path d="M 803 959  L 1103 959  L 1103 1025  L 803 1025  L 803 959  " fill-rule="nonzero" fill="#cccccc" stroke="none" />
    <path d="M 808 964  L 1098 964  L 1098 1020  L 808 1020  L 808 964  " fill-rule="nonzero" fill="#ffffff" stroke="none" />
    <path d="M 963.95 978.8  C 961.178 978.8  959 976.622  959 973.8499999999999  C 959 971.078  961.178 968.9  963.95 968.9  C 966.722 968.9  968.9 971.078  968.9 973.8499999999999  C 968.9 976.622  966.722 978.8  963.95 978.8  " fill-rule="nonzero" fill="#cccccc" stroke="none" />
    <path d="M 810 1019  L 810 989.85  L 881.75 976.6  L 982.2 1012.004  L 1039.6 984.55  L 1097 1012.004  L 1097 1019  L 810 1019  " fill-rule="nonzero" fill="#169bd5" stroke="none" />
  </g>
</svg>