<?xml version="1.0" encoding="utf-8"?>
<svg version="1.1" xmlns:xlink="http://www.w3.org/1999/xlink" width="300px" height="170px" xmlns="http://www.w3.org/2000/svg">
  <g transform="matrix(1 0 0 1 -13 -260 )">
    <path d="M 13 260  L 313 260  L 313 430  L 13 430  L 13 260  " fill-rule="nonzero" fill="#cccccc" stroke="none" />
    <path d="M 25 272  L 301 272  L 301 418  L 25 418  L 25 272  " fill-rule="nonzero" fill="#ffffff" stroke="none" />
    <path d="M 181.75 311  C 174.61 311  169 305.39  169 298.25  C 169 291.11  174.61 285.5  181.75 285.5  C 188.89 285.5  194.5 291.11  194.5 298.25  C 194.5 305.39  188.89 311  181.75 311  " fill-rule="nonzero" fill="#cccccc" stroke="none" />
    <path d="M 30 414  L 30 338.65  L 96.75 304.4  L 190.2 367.42  L 243.60000000000002 324.95  L 297 367.42  L 297 414  L 30 414  " fill-rule="nonzero" fill="#169bd5" stroke="none" />
  </g>
</svg>