<?xml version="1.0" encoding="utf-8"?>
<svg version="1.1" xmlns:xlink="http://www.w3.org/1999/xlink" width="300px" height="170px" xmlns="http://www.w3.org/2000/svg">
  <g transform="matrix(1 0 0 1 -13 -533 )">
    <path d="M 13 533  L 313 533  L 313 703  L 13 703  L 13 533  " fill-rule="nonzero" fill="#cccccc" stroke="none" />
    <path d="M 25 545  L 301 545  L 301 691  L 25 691  L 25 545  " fill-rule="nonzero" fill="#ffffff" stroke="none" />
    <path d="M 181.75 584  C 174.61 584  169 578.39  169 571.25  C 169 564.11  174.61 558.5  181.75 558.5  C 188.89 558.5  194.5 564.11  194.5 571.25  C 194.5 578.39  188.89 584  181.75 584  " fill-rule="nonzero" fill="#cccccc" stroke="none" />
    <path d="M 30 687  L 30 611.65  L 96.75 577.4  L 190.2 640.42  L 243.60000000000002 597.95  L 297 640.42  L 297 687  L 30 687  " fill-rule="nonzero" fill="#169bd5" stroke="none" />
  </g>
</svg>