<?xml version="1.0" encoding="utf-8"?>
<svg version="1.1" xmlns:xlink="http://www.w3.org/1999/xlink" width="335px" height="111px" xmlns="http://www.w3.org/2000/svg">
  <g transform="matrix(1 0 0 1 -709 -178 )">
    <path d="M 710 190  A 11 11 0 0 1 721 179 L 1032 179  A 11 11 0 0 1 1043 190 L 1043 277  A 11 11 0 0 1 1032 288 L 721 288  A 11 11 0 0 1 710 277 L 710 190  Z " fill-rule="nonzero" fill="#ffffff" stroke="none" />
    <path d="M 709.5 190  A 11.5 11.5 0 0 1 721 178.5 L 1032 178.5  A 11.5 11.5 0 0 1 1043.5 190 L 1043.5 277  A 11.5 11.5 0 0 1 1032 288.5 L 721 288.5  A 11.5 11.5 0 0 1 709.5 277 L 709.5 190  Z " stroke-width="1" stroke="#f2f2f2" fill="none" stroke-opacity="0.9882352941176471" />
  </g>
</svg>