<?xml version="1.0" encoding="utf-8"?>
<svg version="1.1" xmlns:xlink="http://www.w3.org/1999/xlink" width="50px" height="44px" xmlns="http://www.w3.org/2000/svg">
  <g transform="matrix(1 0 0 1 -90 -357 )">
    <path d="M 90 357  L 140 357  L 140 401  L 90 401  L 90 357  " fill-rule="nonzero" fill="#cccccc" stroke="none" />
    <path d="M 93 360  L 137 360  L 137 398  L 93 398  L 93 360  " fill-rule="nonzero" fill="#ffffff" stroke="none" />
    <path d="M 119.3 370.20000000000005  C 117.452 370.20000000000005  116 368.74800000000005  116 366.90000000000003  C 116 365.052  117.452 363.6  119.3 363.6  C 121.148 363.6  122.6 365.052  122.6 366.90000000000003  C 122.6 368.74800000000005  121.148 370.20000000000005  119.3 370.20000000000005  " fill-rule="nonzero" fill="#cccccc" stroke="none" />
    <path d="M 94 397  L 94 377.2  L 104.5 368.2  L 119.2 377.992  L 127.6 373.6  L 136 377.992  L 136 397  L 94 397  " fill-rule="nonzero" fill="#169bd5" stroke="none" />
  </g>
</svg>