<?xml version="1.0" encoding="utf-8"?>
<svg version="1.1" xmlns:xlink="http://www.w3.org/1999/xlink" width="70px" height="87px" xmlns="http://www.w3.org/2000/svg">
  <g transform="matrix(1 0 0 1 -1158 -90 )">
    <path d="M 1158 90  L 1228 90  L 1228 177  L 1158 177  L 1158 90  " fill-rule="nonzero" fill="#cccccc" stroke="none" />
    <path d="M 1163 95  L 1223 95  L 1223 172  L 1163 172  L 1163 95  " fill-rule="nonzero" fill="#ffffff" stroke="none" />
    <path d="M 1199.65 113.55  C 1196.71 113.55  1194.4 111.24  1194.4 108.3  C 1194.4 105.36  1196.71 103.05  1199.65 103.05  C 1202.5900000000001 103.05  1204.9 105.36  1204.9 108.3  C 1204.9 111.24  1202.5900000000001 113.55  1199.65 113.55  " fill-rule="nonzero" fill="#cccccc" stroke="none" />
    <path d="M 1165 170  L 1165 129.85  L 1179 111.6  L 1198.6 126.2  L 1209.8 122.55  L 1221 126.2  L 1221 170  L 1165 170  " fill-rule="nonzero" fill="#169bd5" stroke="none" />
  </g>
</svg>