<?xml version="1.0" encoding="utf-8"?>
<svg version="1.1" xmlns:xlink="http://www.w3.org/1999/xlink" width="70px" height="87px" xmlns="http://www.w3.org/2000/svg">
  <g transform="matrix(1 0 0 1 -1059 -90 )">
    <path d="M 1059 90  L 1129 90  L 1129 177  L 1059 177  L 1059 90  " fill-rule="nonzero" fill="#cccccc" stroke="none" />
    <path d="M 1064 95  L 1124 95  L 1124 172  L 1064 172  L 1064 95  " fill-rule="nonzero" fill="#ffffff" stroke="none" />
    <path d="M 1100.65 113.55  C 1097.71 113.55  1095.4 111.24  1095.4 108.3  C 1095.4 105.36  1097.71 103.05  1100.65 103.05  C 1103.5900000000001 103.05  1105.9 105.36  1105.9 108.3  C 1105.9 111.24  1103.5900000000001 113.55  1100.65 113.55  " fill-rule="nonzero" fill="#cccccc" stroke="none" />
    <path d="M 1066 170  L 1066 129.85  L 1080 111.6  L 1099.6 126.2  L 1110.8 122.55  L 1122 126.2  L 1122 170  L 1066 170  " fill-rule="nonzero" fill="#169bd5" stroke="none" />
  </g>
</svg>