<?xml version="1.0" encoding="utf-8"?>
<svg version="1.1" xmlns:xlink="http://www.w3.org/1999/xlink" width="64px" height="51px" xmlns="http://www.w3.org/2000/svg">
  <g transform="matrix(1 0 0 1 -89 -4129 )">
    <path d="M 89 4129  L 153 4129  L 153 4180  L 89 4180  L 89 4129  " fill-rule="nonzero" fill="#cccccc" stroke="none" />
    <path d="M 93 4133  L 149 4133  L 149 4176  L 93 4176  L 93 4133  " fill-rule="nonzero" fill="#ffffff" stroke="none" />
    <path d="M 126.105 4144.299999999999  C 123.96300000000001 4144.299999999999  122.28 4142.616999999999  122.28 4140.474999999999  C 122.28 4138.333  123.96300000000001 4136.65  126.105 4136.65  C 128.247 4136.65  129.93 4138.333  129.93 4140.474999999999  C 129.93 4142.616999999999  128.247 4144.299999999999  126.105 4144.299999999999  " fill-rule="nonzero" fill="#cccccc" stroke="none" />
    <path d="M 95 4175  L 95 4153  L 108.25 4143  L 126.8 4155.875  L 137.4 4149  L 148 4155.875  L 148 4175  L 95 4175  " fill-rule="nonzero" fill="#169bd5" stroke="none" />
  </g>
</svg>