<?xml version="1.0" encoding="utf-8"?>
<svg version="1.1" xmlns:xlink="http://www.w3.org/1999/xlink" width="12px" height="12px" xmlns="http://www.w3.org/2000/svg">
  <g transform="matrix(1 0 0 1 -1253 -239 )">
    <path d="M 1259 239  C 1262.36 239  1265 241.64  1265 245  C 1265 248.36  1262.36 251  1259 251  C 1255.64 251  1253 248.36  1253 245  C 1253 241.64  1255.64 239  1259 239  Z " fill-rule="nonzero" fill="#d7d7d7" stroke="none" />
    <path d="M 1259 239.5  C 1262.08 239.5  1264.5 241.92  1264.5 245  C 1264.5 248.08  1262.08 250.5  1259 250.5  C 1255.92 250.5  1253.5 248.08  1253.5 245  C 1253.5 241.92  1255.92 239.5  1259 239.5  Z " stroke-width="1" stroke="#797979" fill="none" />
  </g>
</svg>