<?xml version="1.0" encoding="utf-8"?>
<svg version="1.1" xmlns:xlink="http://www.w3.org/1999/xlink" width="375px" height="237px" xmlns="http://www.w3.org/2000/svg">
  <g transform="matrix(1 0 0 1 -1086 -51 )">
    <path d="M 1086 51  L 1461 51  L 1461 288  L 1086 288  L 1086 51  " fill-rule="nonzero" fill="#cccccc" stroke="none" />
    <path d="M 1103 68  L 1444 68  L 1444 271  L 1103 271  L 1103 68  " fill-rule="nonzero" fill="#ffffff" stroke="none" />
    <path d="M 1298.775 122.1  C 1288.8210000000001 122.1  1281 114.279  1281 104.32499999999999  C 1281 94.371  1288.8210000000001 86.55  1298.775 86.55  C 1308.729 86.55  1316.55 94.371  1316.55 104.32499999999999  C 1316.55 114.279  1308.729 122.1  1298.775 122.1  " fill-rule="nonzero" fill="#cccccc" stroke="none" />
    <path d="M 1109 265  L 1109 159.95  L 1191.25 112.19999999999999  L 1306.4 192.5728  L 1372.2 140.85  L 1438 192.5728  L 1438 265  L 1109 265  " fill-rule="nonzero" fill="#169bd5" stroke="none" />
  </g>
</svg>