<?xml version="1.0" encoding="utf-8"?>
<svg version="1.1" xmlns:xlink="http://www.w3.org/1999/xlink" width="12px" height="12px" xmlns="http://www.w3.org/2000/svg">
  <g transform="matrix(1 0 0 1 -1268 -239 )">
    <path d="M 1274 239  C 1277.36 239  1280 241.64  1280 245  C 1280 248.36  1277.36 251  1274 251  C 1270.64 251  1268 248.36  1268 245  C 1268 241.64  1270.64 239  1274 239  Z " fill-rule="nonzero" fill="#ffffff" stroke="none" />
    <path d="M 1274 239.5  C 1277.08 239.5  1279.5 241.92  1279.5 245  C 1279.5 248.08  1277.08 250.5  1274 250.5  C 1270.92 250.5  1268.5 248.08  1268.5 245  C 1268.5 241.92  1270.92 239.5  1274 239.5  Z " stroke-width="1" stroke="#797979" fill="none" />
  </g>
</svg>