<?xml version="1.0" encoding="utf-8"?>
<svg version="1.1" xmlns:xlink="http://www.w3.org/1999/xlink" width="167px" height="112px" xmlns="http://www.w3.org/2000/svg">
  <g transform="matrix(1 0 0 1 -597 -52 )">
    <path d="M 597 52  L 764 52  L 764 164  L 597 164  L 597 52  " fill-rule="nonzero" fill="#cccccc" stroke="none" />
    <path d="M 605 60  L 756 60  L 756 156  L 605 156  L 605 60  " fill-rule="nonzero" fill="#ffffff" stroke="none" />
    <path d="M 692.24 85.6  C 687.5360000000001 85.6  683.84 81.904  683.84 77.19999999999999  C 683.84 72.496  687.5360000000001 68.8  692.24 68.8  C 696.944 68.8  700.64 72.496  700.64 77.19999999999999  C 700.64 81.904  696.944 85.6  692.24 85.6  " fill-rule="nonzero" fill="#cccccc" stroke="none" />
    <path d="M 608 153  L 608 103.5  L 644.25 81  L 695 116.78443113772455  L 724 94.5  L 753 116.78443113772455  L 753 153  L 608 153  " fill-rule="nonzero" fill="#169bd5" stroke="none" />
  </g>
</svg>