<?xml version="1.0" encoding="utf-8"?>
<svg version="1.1" xmlns:xlink="http://www.w3.org/1999/xlink" width="167px" height="112px" xmlns="http://www.w3.org/2000/svg">
  <g transform="matrix(1 0 0 1 -771 -52 )">
    <path d="M 771 52  L 938 52  L 938 164  L 771 164  L 771 52  " fill-rule="nonzero" fill="#cccccc" stroke="none" />
    <path d="M 779 60  L 930 60  L 930 156  L 779 156  L 779 60  " fill-rule="nonzero" fill="#ffffff" stroke="none" />
    <path d="M 866.24 85.6  C 861.5360000000001 85.6  857.84 81.904  857.84 77.19999999999999  C 857.84 72.496  861.5360000000001 68.8  866.24 68.8  C 870.944 68.8  874.64 72.496  874.64 77.19999999999999  C 874.64 81.904  870.944 85.6  866.24 85.6  " fill-rule="nonzero" fill="#cccccc" stroke="none" />
    <path d="M 782 153  L 782 103.5  L 818.25 81  L 869 116.78443113772455  L 898 94.5  L 927 116.78443113772455  L 927 153  L 782 153  " fill-rule="nonzero" fill="#169bd5" stroke="none" />
  </g>
</svg>