<?xml version="1.0" encoding="utf-8"?>
<svg version="1.1" xmlns:xlink="http://www.w3.org/1999/xlink" width="167px" height="112px" xmlns="http://www.w3.org/2000/svg">
  <g transform="matrix(1 0 0 1 -192 -506 )">
    <path d="M 192 506  L 359 506  L 359 618  L 192 618  L 192 506  " fill-rule="nonzero" fill="#cccccc" stroke="none" />
    <path d="M 200 514  L 351 514  L 351 610  L 200 610  L 200 514  " fill-rule="nonzero" fill="#ffffff" stroke="none" />
    <path d="M 287.24 539.5999999999999  C 282.536 539.5999999999999  278.84000000000003 535.9039999999999  278.84000000000003 531.1999999999999  C 278.84000000000003 526.496  282.536 522.8  287.24 522.8  C 291.944 522.8  295.64000000000004 526.496  295.64000000000004 531.1999999999999  C 295.64000000000004 535.9039999999999  291.944 539.5999999999999  287.24 539.5999999999999  " fill-rule="nonzero" fill="#cccccc" stroke="none" />
    <path d="M 203 607  L 203 557.5  L 239.25 535  L 290 570.7844311377246  L 319 548.5  L 348 570.7844311377246  L 348 607  L 203 607  " fill-rule="nonzero" fill="#169bd5" stroke="none" />
  </g>
</svg>