<?xml version="1.0" encoding="utf-8"?>
<svg version="1.1" xmlns:xlink="http://www.w3.org/1999/xlink" width="47px" height="47px" xmlns="http://www.w3.org/2000/svg">
  <g transform="matrix(1 0 0 1 -597 -1918 )">
    <path d="M 620.5 1918  C 633.66 1918  644 1928.34  644 1941.5  C 644 1954.66  633.66 1965  620.5 1965  C 607.34 1965  597 1954.66  597 1941.5  C 597 1928.34  607.34 1918  620.5 1918  Z " fill-rule="nonzero" fill="#f2f2f2" stroke="none" />
    <path d="M 620.5 1918.5  C 633.38 1918.5  643.5 1928.62  643.5 1941.5  C 643.5 1954.38  633.38 1964.5  620.5 1964.5  C 607.62 1964.5  597.5 1954.38  597.5 1941.5  C 597.5 1928.62  607.62 1918.5  620.5 1918.5  Z " stroke-width="1" stroke="#797979" fill="none" />
  </g>
</svg>