<?xml version="1.0" encoding="utf-8"?>
<svg version="1.1" xmlns:xlink="http://www.w3.org/1999/xlink" width="102px" height="92px" xmlns="http://www.w3.org/2000/svg">
  <g transform="matrix(1 0 0 1 -597 -2076 )">
    <path d="M 597 2076  L 699 2076  L 699 2168  L 597 2168  L 597 2076  " fill-rule="nonzero" fill="#cccccc" stroke="none" />
    <path d="M 603 2082  L 693 2082  L 693 2162  L 603 2162  L 603 2082  " fill-rule="nonzero" fill="#ffffff" stroke="none" />
    <path d="M 656.9399999999999 2103.6000000000004  C 653.0759999999999 2103.6000000000004  650.04 2100.5640000000003  650.04 2096.7000000000003  C 650.04 2092.8360000000002  653.0759999999999 2089.8  656.9399999999999 2089.8  C 660.804 2089.8  663.8399999999999 2092.8360000000002  663.8399999999999 2096.7000000000003  C 663.8399999999999 2100.5640000000003  660.804 2103.6000000000004  656.9399999999999 2103.6000000000004  " fill-rule="nonzero" fill="#cccccc" stroke="none" />
    <path d="M 606 2160  L 606 2118.75  L 627.25 2100  L 657 2119.4117647058824  L 674 2111.25  L 691 2119.4117647058824  L 691 2160  L 606 2160  " fill-rule="nonzero" fill="#169bd5" stroke="none" />
  </g>
</svg>