<?xml version="1.0" encoding="utf-8"?>
<svg version="1.1" xmlns:xlink="http://www.w3.org/1999/xlink" width="98px" height="80px" xmlns="http://www.w3.org/2000/svg">
  <g transform="matrix(1 0 0 1 -2389 -76 )">
    <path d="M 2389 76  L 2487 76  L 2487 156  L 2389 156  L 2389 76  " fill-rule="nonzero" fill="#cccccc" stroke="none" />
    <path d="M 2395 82  L 2481 82  L 2481 150  L 2395 150  L 2395 82  " fill-rule="nonzero" fill="#ffffff" stroke="none" />
    <path d="M 2445.96 100  C 2442.6 100  2439.96 97.36  2439.96 94  C 2439.96 90.64  2442.6 88  2445.96 88  C 2449.32 88  2451.96 90.64  2451.96 94  C 2451.96 97.36  2449.32 100  2445.96 100  " fill-rule="nonzero" fill="#cccccc" stroke="none" />
    <path d="M 2397 148  L 2397 112.8  L 2417.5 96.8  L 2446.2 116.65306122448979  L 2462.6 106.4  L 2479 116.65306122448979  L 2479 148  L 2397 148  " fill-rule="nonzero" fill="#169bd5" stroke="none" />
  </g>
</svg>