<?xml version="1.0" encoding="utf-8"?>
<svg version="1.1" xmlns:xlink="http://www.w3.org/1999/xlink" width="50px" height="50px" xmlns="http://www.w3.org/2000/svg">
  <g transform="matrix(1 0 0 1 -3118 -56 )">
    <path d="M 3143 56  C 3157 56  3168 67  3168 81  C 3168 95  3157 106  3143 106  C 3129 106  3118 95  3118 81  C 3118 67  3129 56  3143 56  Z " fill-rule="nonzero" fill="#ffffff" stroke="none" />
    <path d="M 3143 56.5  C 3156.72 56.5  3167.5 67.28  3167.5 81  C 3167.5 94.72  3156.72 105.5  3143 105.5  C 3129.28 105.5  3118.5 94.72  3118.5 81  C 3118.5 67.28  3129.28 56.5  3143 56.5  Z " stroke-width="1" stroke="#797979" fill="none" />
  </g>
</svg>