<?xml version="1.0" encoding="utf-8"?>
<svg version="1.1" xmlns:xlink="http://www.w3.org/1999/xlink" width="13px" height="13px" viewBox="2698 503  13 13" xmlns="http://www.w3.org/2000/svg">
  <path d="M 2704.5 503  C 2708.14 503  2711 505.86  2711 509.5  C 2711 513.14  2708.14 516  2704.5 516  C 2700.86 516  2698 513.14  2698 509.5  C 2698 505.86  2700.86 503  2704.5 503  Z " fill-rule="nonzero" fill="#ffffff" stroke="none" />
  <path d="M 2704.5 503.5  C 2707.86 503.5  2710.5 506.14  2710.5 509.5  C 2710.5 512.86  2707.86 515.5  2704.5 515.5  C 2701.14 515.5  2698.5 512.86  2698.5 509.5  C 2698.5 506.14  2701.14 503.5  2704.5 503.5  Z " stroke-width="1" stroke="#797979" fill="none" />
  <path d="M 2704.5 512.75  C 2702.68 512.75  2701.25 511.32  2701.25 509.5  C 2701.25 507.68  2702.68 506.25  2704.5 506.25  C 2706.32 506.25  2707.75 507.68  2707.75 509.5  C 2707.75 511.32  2706.32 512.75  2704.5 512.75  " fill-rule="nonzero" fill="#797979" stroke="none" />
</svg>