<?xml version="1.0" encoding="utf-8"?>
<svg version="1.1" xmlns:xlink="http://www.w3.org/1999/xlink" width="124px" height="112px" xmlns="http://www.w3.org/2000/svg">
  <g transform="matrix(1 0 0 1 -1 -3146 )">
    <path d="M 1 3146  L 125 3146  L 125 3258  L 1 3258  L 1 3146  " fill-rule="nonzero" fill="#cccccc" stroke="none" />
    <path d="M 9 3154  L 117 3154  L 117 3250  L 9 3250  L 9 3154  " fill-rule="nonzero" fill="#ffffff" stroke="none" />
    <path d="M 73.88 3179.6000000000004  C 69.176 3179.6000000000004  65.48 3175.9040000000005  65.48 3171.2000000000003  C 65.48 3166.496  69.176 3162.8  73.88 3162.8  C 78.584 3162.8  82.28 3166.496  82.28 3171.2000000000003  C 82.28 3175.9040000000005  78.584 3179.6000000000004  73.88 3179.6000000000004  " fill-rule="nonzero" fill="#cccccc" stroke="none" />
    <path d="M 12 3247  L 12 3197.5  L 37.5 3175  L 73.19999999999999 3198.2258064516127  L 93.60000000000001 3188.5  L 114 3198.2258064516127  L 114 3247  L 12 3247  " fill-rule="nonzero" fill="#169bd5" stroke="none" />
  </g>
</svg>