<?xml version="1.0" encoding="utf-8"?>
<svg version="1.1" xmlns:xlink="http://www.w3.org/1999/xlink" width="13px" height="13px" viewBox="2698 528  13 13" xmlns="http://www.w3.org/2000/svg">
  <path d="M 2704.5 528  C 2708.14 528  2711 530.86  2711 534.5  C 2711 538.14  2708.14 541  2704.5 541  C 2700.86 541  2698 538.14  2698 534.5  C 2698 530.86  2700.86 528  2704.5 528  Z " fill-rule="nonzero" fill="#ffffff" stroke="none" />
  <path d="M 2704.5 528.5  C 2707.86 528.5  2710.5 531.14  2710.5 534.5  C 2710.5 537.86  2707.86 540.5  2704.5 540.5  C 2701.14 540.5  2698.5 537.86  2698.5 534.5  C 2698.5 531.14  2701.14 528.5  2704.5 528.5  Z " stroke-width="1" stroke="#797979" fill="none" />
  <path d="M 2704.5 537.75  C 2702.68 537.75  2701.25 536.32  2701.25 534.5  C 2701.25 532.68  2702.68 531.25  2704.5 531.25  C 2706.32 531.25  2707.75 532.68  2707.75 534.5  C 2707.75 536.32  2706.32 537.75  2704.5 537.75  " fill-rule="nonzero" fill="#797979" stroke="none" />
</svg>