<?xml version="1.0" encoding="utf-8"?>
<svg version="1.1" xmlns:xlink="http://www.w3.org/1999/xlink" width="64px" height="51px" xmlns="http://www.w3.org/2000/svg">
  <g transform="matrix(1 0 0 1 -231 -4129 )">
    <path d="M 231 4129  L 295 4129  L 295 4180  L 231 4180  L 231 4129  " fill-rule="nonzero" fill="#cccccc" stroke="none" />
    <path d="M 235 4133  L 291 4133  L 291 4176  L 235 4176  L 235 4133  " fill-rule="nonzero" fill="#ffffff" stroke="none" />
    <path d="M 268.10499999999996 4144.299999999999  C 265.96299999999997 4144.299999999999  264.28 4142.616999999999  264.28 4140.474999999999  C 264.28 4138.333  265.96299999999997 4136.65  268.10499999999996 4136.65  C 270.24699999999996 4136.65  271.92999999999995 4138.333  271.92999999999995 4140.474999999999  C 271.92999999999995 4142.616999999999  270.24699999999996 4144.299999999999  268.10499999999996 4144.299999999999  " fill-rule="nonzero" fill="#cccccc" stroke="none" />
    <path d="M 237 4175  L 237 4153  L 250.25 4143  L 268.8 4155.875  L 279.4 4149  L 290 4155.875  L 290 4175  L 237 4175  " fill-rule="nonzero" fill="#169bd5" stroke="none" />
  </g>
</svg>