<?xml version="1.0" encoding="utf-8"?>
<svg version="1.1" xmlns:xlink="http://www.w3.org/1999/xlink" width="373px" height="167px" xmlns="http://www.w3.org/2000/svg">
  <g transform="matrix(1 0 0 1 -1 -2638 )">
    <path d="M 1 2638  L 374 2638  L 374 2805  L 1 2805  L 1 2638  " fill-rule="nonzero" fill="#cccccc" stroke="none" />
    <path d="M 13 2650  L 362 2650  L 362 2793  L 13 2793  L 13 2650  " fill-rule="nonzero" fill="#ffffff" stroke="none" />
    <path d="M 207.485 2688.1000000000004  C 200.471 2688.1000000000004  194.96 2682.5890000000004  194.96 2675.5750000000003  C 194.96 2668.561  200.471 2663.05  207.485 2663.05  C 214.49900000000002 2663.05  220.01000000000002 2668.561  220.01000000000002 2675.5750000000003  C 220.01000000000002 2682.5890000000004  214.49900000000002 2688.1000000000004  207.485 2688.1000000000004  " fill-rule="nonzero" fill="#cccccc" stroke="none" />
    <path d="M 17 2789  L 17 2714.75  L 102.25 2681  L 221.6 2752.734584450402  L 289.8 2701.25  L 358 2752.734584450402  L 358 2789  L 17 2789  " fill-rule="nonzero" fill="#169bd5" stroke="none" />
  </g>
</svg>