<?xml version="1.0" encoding="utf-8"?>
<svg version="1.1" xmlns:xlink="http://www.w3.org/1999/xlink" width="375px" height="383px" xmlns="http://www.w3.org/2000/svg">
  <g transform="matrix(1 0 0 1 -1051 -1153 )">
    <path d="M 1051 1153  L 1426 1153  L 1426 1536  L 1051 1536  L 1051 1153  " fill-rule="nonzero" fill="#cccccc" stroke="none" />
    <path d="M 1077 1179  L 1400 1179  L 1400 1510  L 1077 1510  L 1077 1179  " fill-rule="nonzero" fill="#ffffff" stroke="none" />
    <path d="M 1274.125 1266.7  C 1258.375 1266.7  1246 1254.325  1246 1238.575  C 1246 1222.825  1258.375 1210.45  1274.125 1210.45  C 1289.875 1210.45  1302.25 1222.825  1302.25 1238.575  C 1302.25 1254.325  1289.875 1266.7  1274.125 1266.7  " fill-rule="nonzero" fill="#cccccc" stroke="none" />
    <path d="M 1087 1501  L 1087 1329.4  L 1163 1251.4  L 1269.4 1313.8  L 1330.2 1298.2  L 1391 1313.8  L 1391 1501  L 1087 1501  " fill-rule="nonzero" fill="#169bd5" stroke="none" />
  </g>
</svg>