<?xml version="1.0" encoding="utf-8"?>
<svg version="1.1" xmlns:xlink="http://www.w3.org/1999/xlink" width="124px" height="112px" xmlns="http://www.w3.org/2000/svg">
  <g transform="matrix(1 0 0 1 -126 -3146 )">
    <path d="M 126 3146  L 250 3146  L 250 3258  L 126 3258  L 126 3146  " fill-rule="nonzero" fill="#cccccc" stroke="none" />
    <path d="M 134 3154  L 242 3154  L 242 3250  L 134 3250  L 134 3154  " fill-rule="nonzero" fill="#ffffff" stroke="none" />
    <path d="M 198.88000000000002 3179.6000000000004  C 194.17600000000002 3179.6000000000004  190.48000000000002 3175.9040000000005  190.48000000000002 3171.2000000000003  C 190.48000000000002 3166.496  194.17600000000002 3162.8  198.88000000000002 3162.8  C 203.58400000000003 3162.8  207.28000000000003 3166.496  207.28000000000003 3171.2000000000003  C 207.28000000000003 3175.9040000000005  203.58400000000003 3179.6000000000004  198.88000000000002 3179.6000000000004  " fill-rule="nonzero" fill="#cccccc" stroke="none" />
    <path d="M 137 3247  L 137 3197.5  L 162.5 3175  L 198.2 3198.2258064516127  L 218.60000000000002 3188.5  L 239 3198.2258064516127  L 239 3247  L 137 3247  " fill-rule="nonzero" fill="#169bd5" stroke="none" />
  </g>
</svg>