<?xml version="1.0" encoding="utf-8"?>
<svg version="1.1" xmlns:xlink="http://www.w3.org/1999/xlink" width="13px" height="13px" viewBox="20 721  13 13" xmlns="http://www.w3.org/2000/svg">
  <path d="M 26.5 721  C 30.14 721  33 723.86  33 727.5  C 33 731.14  30.14 734  26.5 734  C 22.86 734  20 731.14  20 727.5  C 20 723.86  22.86 721  26.5 721  Z " fill-rule="nonzero" fill="#ffffff" stroke="none" />
  <path d="M 26.5 721.5  C 29.86 721.5  32.5 724.14  32.5 727.5  C 32.5 730.86  29.86 733.5  26.5 733.5  C 23.14 733.5  20.5 730.86  20.5 727.5  C 20.5 724.14  23.14 721.5  26.5 721.5  Z " stroke-width="1" stroke="#797979" fill="none" />
  <path d="M 26.5 730.75  C 24.68 730.75  23.25 729.32  23.25 727.5  C 23.25 725.68  24.68 724.25  26.5 724.25  C 28.32 724.25  29.75 725.68  29.75 727.5  C 29.75 729.32  28.32 730.75  26.5 730.75  " fill-rule="nonzero" fill="#797979" stroke="none" />
</svg>