<?xml version="1.0" encoding="utf-8"?>
<svg version="1.1" xmlns:xlink="http://www.w3.org/1999/xlink" width="13px" height="13px" viewBox="20 746  13 13" xmlns="http://www.w3.org/2000/svg">
  <path d="M 26.5 746  C 30.14 746  33 748.86  33 752.5  C 33 756.14  30.14 759  26.5 759  C 22.86 759  20 756.14  20 752.5  C 20 748.86  22.86 746  26.5 746  Z " fill-rule="nonzero" fill="#f0f0f0" stroke="none" />
  <path d="M 26.5 746.5  C 29.86 746.5  32.5 749.14  32.5 752.5  C 32.5 755.86  29.86 758.5  26.5 758.5  C 23.14 758.5  20.5 755.86  20.5 752.5  C 20.5 749.14  23.14 746.5  26.5 746.5  Z " stroke-width="1" stroke="#797979" fill="none" />
  <path d="M 26.5 755.75  C 24.68 755.75  23.25 754.32  23.25 752.5  C 23.25 750.68  24.68 749.25  26.5 749.25  C 28.32 749.25  29.75 750.68  29.75 752.5  C 29.75 754.32  28.32 755.75  26.5 755.75  " fill-rule="nonzero" fill="#797979" stroke="none" />
</svg>