<?xml version="1.0" encoding="utf-8"?>
<svg version="1.1" xmlns:xlink="http://www.w3.org/1999/xlink" width="13px" height="13px" viewBox="20 696  13 13" xmlns="http://www.w3.org/2000/svg">
  <path d="M 26.5 696  C 30.14 696  33 698.86  33 702.5  C 33 706.14  30.14 709  26.5 709  C 22.86 709  20 706.14  20 702.5  C 20 698.86  22.86 696  26.5 696  Z " fill-rule="nonzero" fill="#ffffff" stroke="none" />
  <path d="M 26.5 696.5  C 29.86 696.5  32.5 699.14  32.5 702.5  C 32.5 705.86  29.86 708.5  26.5 708.5  C 23.14 708.5  20.5 705.86  20.5 702.5  C 20.5 699.14  23.14 696.5  26.5 696.5  Z " stroke-width="1" stroke="#797979" fill="none" />
  <path d="M 26.5 705.75  C 24.68 705.75  23.25 704.32  23.25 702.5  C 23.25 700.68  24.68 699.25  26.5 699.25  C 28.32 699.25  29.75 700.68  29.75 702.5  C 29.75 704.32  28.32 705.75  26.5 705.75  " fill-rule="nonzero" fill="#797979" stroke="none" />
</svg>