<?xml version="1.0" encoding="utf-8"?>
<svg version="1.1" xmlns:xlink="http://www.w3.org/1999/xlink" width="40px" height="40px" xmlns="http://www.w3.org/2000/svg">
  <g transform="matrix(1 0 0 1 -875 -237 )">
    <path d="M 895 237  C 906.2 237  915 245.8  915 257  C 915 268.2  906.2 277  895 277  C 883.8 277  875 268.2  875 257  C 875 245.8  883.8 237  895 237  Z " fill-rule="nonzero" fill="#ffffff" stroke="none" />
    <path d="M 895 237.5  C 905.92 237.5  914.5 246.07999999999998  914.5 257  C 914.5 267.92  905.92 276.5  895 276.5  C 884.08 276.5  875.5 267.92  875.5 257  C 875.5 246.07999999999998  884.08 237.5  895 237.5  Z " stroke-width="1" stroke="#797979" fill="none" />
  </g>
</svg>