<?xml version="1.0" encoding="utf-8"?>
<svg version="1.1" xmlns:xlink="http://www.w3.org/1999/xlink" width="66px" height="58px" xmlns="http://www.w3.org/2000/svg">
  <g transform="matrix(1 0 0 1 -20 -117 )">
    <path d="M 20 117  L 86 117  L 86 175  L 20 175  L 20 117  " fill-rule="nonzero" fill="#cccccc" stroke="none" />
    <path d="M 24 121  L 82 121  L 82 171  L 24 171  L 24 121  " fill-rule="nonzero" fill="#ffffff" stroke="none" />
    <path d="M 58.67 134.4  C 56.234 134.4  54.32 132.48600000000002  54.32 130.05  C 54.32 127.614  56.234 125.7  58.67 125.7  C 61.106 125.7  63.019999999999996 127.614  63.019999999999996 130.05  C 63.019999999999996 132.48600000000002  61.106 134.4  58.67 134.4  " fill-rule="nonzero" fill="#cccccc" stroke="none" />
    <path d="M 26 170  L 26 144.15  L 39.75 132.4  L 59 145.21818181818182  L 70 139.45  L 81 145.21818181818182  L 81 170  L 26 170  " fill-rule="nonzero" fill="#169bd5" stroke="none" />
  </g>
</svg>