<?xml version="1.0" encoding="utf-8"?>
<svg version="1.1" xmlns:xlink="http://www.w3.org/1999/xlink" width="42px" height="41px" xmlns="http://www.w3.org/2000/svg">
  <g transform="matrix(1 0 0 1 -80 -87 )">
    <path d="M 101 87  C 112.75999999999999 87  122 96.02  122 107.5  C 122 118.98  112.75999999999999 128  101 128  C 89.24 128  80 118.98  80 107.5  C 80 96.02  89.24 87  101 87  Z " fill-rule="nonzero" fill="#ffffff" stroke="none" />
    <path d="M 101 87.5  C 112.48 87.5  121.5 96.3  121.5 107.5  C 121.5 118.7  112.48 127.5  101 127.5  C 89.52 127.5  80.5 118.7  80.5 107.5  C 80.5 96.3  89.52 87.5  101 87.5  Z " stroke-width="1" stroke="#797979" fill="none" />
  </g>
</svg>