<?xml version="1.0" encoding="utf-8"?>
<svg version="1.1" xmlns:xlink="http://www.w3.org/1999/xlink" width="65px" height="63px" xmlns="http://www.w3.org/2000/svg">
  <g transform="matrix(1 0 0 1 -47 -47 )">
    <path d="M 79.5 47  C 97.7 47  112 60.86  112 78.5  C 112 96.14  97.7 110  79.5 110  C 61.3 110  47 96.14  47 78.5  C 47 60.86  61.3 47  79.5 47  Z " fill-rule="nonzero" fill="#ffffff" stroke="none" />
    <path d="M 79.5 47.5  C 97.42 47.5  111.5 61.14  111.5 78.5  C 111.5 95.86  97.42 109.5  79.5 109.5  C 61.58 109.5  47.5 95.86  47.5 78.5  C 47.5 61.14  61.58 47.5  79.5 47.5  Z " stroke-width="1" stroke="#797979" fill="none" />
  </g>
</svg>