<?xml version="1.0" encoding="utf-8"?>
<svg version="1.1" xmlns:xlink="http://www.w3.org/1999/xlink" width="167px" height="112px" xmlns="http://www.w3.org/2000/svg">
  <g transform="matrix(1 0 0 1 -18 -506 )">
    <path d="M 18 506  L 185 506  L 185 618  L 18 618  L 18 506  " fill-rule="nonzero" fill="#cccccc" stroke="none" />
    <path d="M 26 514  L 177 514  L 177 610  L 26 610  L 26 514  " fill-rule="nonzero" fill="#ffffff" stroke="none" />
    <path d="M 113.24000000000001 539.5999999999999  C 108.536 539.5999999999999  104.84 535.9039999999999  104.84 531.1999999999999  C 104.84 526.496  108.536 522.8  113.24000000000001 522.8  C 117.944 522.8  121.64 526.496  121.64 531.1999999999999  C 121.64 535.9039999999999  117.944 539.5999999999999  113.24000000000001 539.5999999999999  " fill-rule="nonzero" fill="#cccccc" stroke="none" />
    <path d="M 29 607  L 29 557.5  L 65.25 535  L 116 570.7844311377246  L 145 548.5  L 174 570.7844311377246  L 174 607  L 29 607  " fill-rule="nonzero" fill="#169bd5" stroke="none" />
  </g>
</svg>