<?xml version="1.0" encoding="utf-8"?>
<svg version="1.1" xmlns:xlink="http://www.w3.org/1999/xlink" width="375px" height="237px" xmlns="http://www.w3.org/2000/svg">
  <g transform="matrix(1 0 0 1 0 -51 )">
    <path d="M 0 51  L 375 51  L 375 288  L 0 288  L 0 51  " fill-rule="nonzero" fill="#cccccc" stroke="none" />
    <path d="M 17 68  L 358 68  L 358 271  L 17 271  L 17 68  " fill-rule="nonzero" fill="#ffffff" stroke="none" />
    <path d="M 212.775 122.1  C 202.821 122.1  195 114.279  195 104.32499999999999  C 195 94.371  202.821 86.55  212.775 86.55  C 222.729 86.55  230.55 94.371  230.55 104.32499999999999  C 230.55 114.279  222.729 122.1  212.775 122.1  " fill-rule="nonzero" fill="#cccccc" stroke="none" />
    <path d="M 23 265  L 23 159.95  L 105.25 112.19999999999999  L 220.4 192.5728  L 286.2 140.85  L 352 192.5728  L 352 265  L 23 265  " fill-rule="nonzero" fill="#169bd5" stroke="none" />
  </g>
</svg>