<?xml version="1.0" encoding="utf-8"?>
<svg version="1.1" xmlns:xlink="http://www.w3.org/1999/xlink" width="47px" height="47px" xmlns="http://www.w3.org/2000/svg">
  <g transform="matrix(1 0 0 1 -19 -1471 )">
    <path d="M 42.5 1471  C 55.660000000000004 1471  66 1481.34  66 1494.5  C 66 1507.66  55.660000000000004 1518  42.5 1518  C 29.339999999999996 1518  19 1507.66  19 1494.5  C 19 1481.34  29.339999999999996 1471  42.5 1471  Z " fill-rule="nonzero" fill="#f2f2f2" stroke="none" />
    <path d="M 42.5 1471.5  C 55.38 1471.5  65.5 1481.62  65.5 1494.5  C 65.5 1507.38  55.38 1517.5  42.5 1517.5  C 29.619999999999997 1517.5  19.5 1507.38  19.5 1494.5  C 19.5 1481.62  29.619999999999997 1471.5  42.5 1471.5  Z " stroke-width="1" stroke="#797979" fill="none" />
  </g>
</svg>