<?xml version="1.0" encoding="utf-8"?>
<svg version="1.1" xmlns:xlink="http://www.w3.org/1999/xlink" width="102px" height="92px" xmlns="http://www.w3.org/2000/svg">
  <g transform="matrix(1 0 0 1 -19 -1604 )">
    <path d="M 19 1604  L 121 1604  L 121 1696  L 19 1696  L 19 1604  " fill-rule="nonzero" fill="#cccccc" stroke="none" />
    <path d="M 25 1610  L 115 1610  L 115 1690  L 25 1690  L 25 1610  " fill-rule="nonzero" fill="#ffffff" stroke="none" />
    <path d="M 78.94 1631.6  C 75.076 1631.6  72.03999999999999 1628.5639999999999  72.03999999999999 1624.6999999999998  C 72.03999999999999 1620.8359999999998  75.076 1617.8  78.94 1617.8  C 82.80399999999999 1617.8  85.83999999999999 1620.8359999999998  85.83999999999999 1624.6999999999998  C 85.83999999999999 1628.5639999999999  82.80399999999999 1631.6  78.94 1631.6  " fill-rule="nonzero" fill="#cccccc" stroke="none" />
    <path d="M 28 1688  L 28 1646.75  L 49.25 1628  L 79 1647.4117647058824  L 96 1639.25  L 113 1647.4117647058824  L 113 1688  L 28 1688  " fill-rule="nonzero" fill="#169bd5" stroke="none" />
  </g>
</svg>