<?xml version="1.0" encoding="utf-8"?>
<svg version="1.1" xmlns:xlink="http://www.w3.org/1999/xlink" width="98px" height="80px" xmlns="http://www.w3.org/2000/svg">
  <g transform="matrix(1 0 0 1 -1977 -632 )">
    <path d="M 1977 632  L 2075 632  L 2075 712  L 1977 712  L 1977 632  " fill-rule="nonzero" fill="#cccccc" stroke="none" />
    <path d="M 1983 638  L 2069 638  L 2069 706  L 1983 706  L 1983 638  " fill-rule="nonzero" fill="#ffffff" stroke="none" />
    <path d="M 2033.96 656  C 2030.6000000000001 656  2027.96 653.36  2027.96 650  C 2027.96 646.64  2030.6000000000001 644  2033.96 644  C 2037.32 644  2039.96 646.64  2039.96 650  C 2039.96 653.36  2037.32 656  2033.96 656  " fill-rule="nonzero" fill="#cccccc" stroke="none" />
    <path d="M 1985 704  L 1985 668.8  L 2005.5 652.8  L 2034.2 672.6530612244898  L 2050.6 662.4  L 2067 672.6530612244898  L 2067 704  L 1985 704  " fill-rule="nonzero" fill="#169bd5" stroke="none" />
  </g>
</svg>