<?xml version="1.0" encoding="utf-8"?>
<svg version="1.1" xmlns:xlink="http://www.w3.org/1999/xlink" width="50px" height="50px" xmlns="http://www.w3.org/2000/svg">
  <g transform="matrix(1 0 0 1 -2530 -738 )">
    <path d="M 2555 738  C 2569 738  2580 749  2580 763  C 2580 777  2569 788  2555 788  C 2541 788  2530 777  2530 763  C 2530 749  2541 738  2555 738  Z " fill-rule="nonzero" fill="#ffffff" stroke="none" />
    <path d="M 2555 738.5  C 2568.72 738.5  2579.5 749.28  2579.5 763  C 2579.5 776.72  2568.72 787.5  2555 787.5  C 2541.28 787.5  2530.5 776.72  2530.5 763  C 2530.5 749.28  2541.28 738.5  2555 738.5  Z " stroke-width="1" stroke="#797979" fill="none" />
  </g>
</svg>