<?xml version="1.0" encoding="utf-8"?>
<svg version="1.1" xmlns:xlink="http://www.w3.org/1999/xlink" width="98px" height="80px" xmlns="http://www.w3.org/2000/svg">
  <g transform="matrix(1 0 0 1 -1977 -538 )">
    <path d="M 1977 538  L 2075 538  L 2075 618  L 1977 618  L 1977 538  " fill-rule="nonzero" fill="#cccccc" stroke="none" />
    <path d="M 1983 544  L 2069 544  L 2069 612  L 1983 612  L 1983 544  " fill-rule="nonzero" fill="#ffffff" stroke="none" />
    <path d="M 2033.96 562  C 2030.6000000000001 562  2027.96 559.36  2027.96 556  C 2027.96 552.64  2030.6000000000001 550  2033.96 550  C 2037.32 550  2039.96 552.64  2039.96 556  C 2039.96 559.36  2037.32 562  2033.96 562  " fill-rule="nonzero" fill="#cccccc" stroke="none" />
    <path d="M 1985 610  L 1985 574.8  L 2005.5 558.8  L 2034.2 578.6530612244898  L 2050.6 568.4  L 2067 578.6530612244898  L 2067 610  L 1985 610  " fill-rule="nonzero" fill="#169bd5" stroke="none" />
  </g>
</svg>