<?xml version="1.0" encoding="utf-8"?>
<svg version="1.1" xmlns:xlink="http://www.w3.org/1999/xlink" width="50px" height="50px" xmlns="http://www.w3.org/2000/svg">
  <g transform="matrix(1 0 0 1 -2530 -905 )">
    <path d="M 2555 905  C 2569 905  2580 916  2580 930  C 2580 944  2569 955  2555 955  C 2541 955  2530 944  2530 930  C 2530 916  2541 905  2555 905  Z " fill-rule="nonzero" fill="#ffffff" stroke="none" />
    <path d="M 2555 905.5  C 2568.72 905.5  2579.5 916.28  2579.5 930  C 2579.5 943.72  2568.72 954.5  2555 954.5  C 2541.28 954.5  2530.5 943.72  2530.5 930  C 2530.5 916.28  2541.28 905.5  2555 905.5  Z " stroke-width="1" stroke="#797979" fill="none" />
  </g>
</svg>