<?xml version="1.0" encoding="utf-8"?>
<svg version="1.1" xmlns:xlink="http://www.w3.org/1999/xlink" width="18px" height="18px" xmlns="http://www.w3.org/2000/svg">
  <g transform="matrix(1 0 0 1 -140 -871 )">
    <path d="M 147.34264536939455 877.7188470506255  L 149 872.6180339887499  L 150.65735463060545 877.7188470506255  L 156.02066687806877 877.7188470506255  L 151.68165612373164 880.871322893124  L 153.3390107543371 885.9721359549995  L 149 882.8196601125011  L 144.6609892456629 885.9721359549995  L 146.31834387626836 880.871322893124  L 141.97933312193123 877.7188470506255  L 147.34264536939455 877.7188470506255  Z " fill-rule="nonzero" fill="#ffffff" stroke="none" />
    <path d="M 146.97937410539186 877.2188470506255  L 149 871  L 151.02062589460814 877.2188470506255  L 157.55950864665638 877.2188470506255  L 152.26944137602413 881.0623058987491  L 154.29006727063225 887.2811529493745  L 149 883.4376941012509  L 143.70993272936775 887.2811529493745  L 145.73055862397587 881.0623058987491  L 140.44049135334362 877.2188470506255  L 146.97937410539186 877.2188470506255  Z M 149 874.2360679774998  L 147.70591663339724 878.2188470506255  L 143.51817489051888 878.2188470506255  L 146.90612912856082 880.6803398874989  L 145.61204576195806 884.6631189606246  L 149 882.2016261237511  L 152.38795423804194 884.6631189606246  L 151.09387087143918 880.6803398874989  L 154.48182510948112 878.2188470506255  L 150.29408336660276 878.2188470506255  L 149 874.2360679774998  Z " fill-rule="nonzero" fill="#797979" stroke="none" />
  </g>
</svg>