<?xml version="1.0" encoding="utf-8"?>
<svg version="1.1" xmlns:xlink="http://www.w3.org/1999/xlink" width="15px" height="18px" xmlns="http://www.w3.org/2000/svg">
  <g transform="matrix(1 0 0 1 -18 -9 )">
    <path d="M 25.5 26.102000869140515  C 22.7 21.947385150240315  18.5 19.4546157189002  18.5 15.3  C 18.5 13.145714285714284  19.9 9.5  25.5 9.5  C 31.1 9.5  32.5 13.145714285714284  32.5 15.3  C 32.5 19.4546157189002  28.3 21.947385150240315  25.5 26.102000869140515  Z " fill-rule="nonzero" fill="#ffffff" stroke="none" />
    <path d="M 25.5 27  C 22.5 22.5  18 19.799999999999997  18 15.3  C 18 12.959999999999999  19.5 9  25.5 9  C 31.5 9  33 12.959999999999999  33 15.3  C 33 19.799999999999997  28.5 22.5  25.5 27  Z M 25.5 25.204001738281033  C 28.1 21.394770300480634  32 19.109231437800396  32 15.3  C 32 13.331428571428571  30.7 10  25.5 10  C 20.3 10  19 13.331428571428571  19 15.3  C 19 19.109231437800396  22.9 21.394770300480634  25.5 25.204001738281033  Z " fill-rule="nonzero" fill="#797979" stroke="none" />
  </g>
</svg>