<?xml version="1.0" encoding="utf-8"?>
<svg version="1.1" xmlns:xlink="http://www.w3.org/1999/xlink" width="12px" height="12px" xmlns="http://www.w3.org/2000/svg">
  <g transform="matrix(1 0 0 1 -162 -286 )">
    <path d="M 168 286  C 171.36 286  174 288.64  174 292  C 174 295.36  171.36 298  168 298  C 164.64 298  162 295.36  162 292  C 162 288.64  164.64 286  168 286  Z " fill-rule="nonzero" fill="#d7d7d7" stroke="none" />
    <path d="M 168 286.5  C 171.08 286.5  173.5 288.92  173.5 292  C 173.5 295.08  171.08 297.5  168 297.5  C 164.92 297.5  162.5 295.08  162.5 292  C 162.5 288.92  164.92 286.5  168 286.5  Z " stroke-width="1" stroke="#797979" fill="none" />
  </g>
</svg>