<?xml version="1.0" encoding="utf-8"?>
<svg version="1.1" xmlns:xlink="http://www.w3.org/1999/xlink" width="76px" height="52px" xmlns="http://www.w3.org/2000/svg">
  <defs>
    <filter x="257px" y="642px" width="76px" height="52px" filterUnits="userSpaceOnUse" id="filter602">
      <feOffset dx="0" dy="0" in="SourceAlpha" result="shadowOffsetInner" />
      <feGaussianBlur stdDeviation="3" in="shadowOffsetInner" result="shadowGaussian" />
      <feComposite in2="shadowGaussian" operator="atop" in="SourceAlpha" result="shadowComposite" />
      <feColorMatrix type="matrix" values="0 0 0 0 0.4  0 0 0 0 0.43137254901960786  0 0 0 0 0.9098039215686274  0 0 0 0.2980392156862745 0  " in="shadowComposite" />
    </filter>
    <g id="widget603">
      <path d="M 263.5 652  A 3.5 3.5 0 0 1 267 648.5 L 323 648.5  A 3.5 3.5 0 0 1 326.5 652 L 326.5 684  A 3.5 3.5 0 0 1 323 687.5 L 267 687.5  A 3.5 3.5 0 0 1 263.5 684 L 263.5 652  Z " fill-rule="nonzero" fill="#f2f2f2" stroke="none" />
      <path d="M 263.5 652  A 3.5 3.5 0 0 1 267 648.5 L 323 648.5  A 3.5 3.5 0 0 1 326.5 652 L 326.5 684  A 3.5 3.5 0 0 1 323 687.5 L 267 687.5  A 3.5 3.5 0 0 1 263.5 684 L 263.5 652  Z " stroke-width="1" stroke="#e4e4e4" fill="none" />
    </g>
  </defs>
  <g transform="matrix(1 0 0 1 -257 -642 )">
    <use xlink:href="#widget603" filter="url(#filter602)" />
    <use xlink:href="#widget603" />
  </g>
</svg>