<?xml version="1.0" encoding="utf-8"?>
<svg version="1.1" xmlns:xlink="http://www.w3.org/1999/xlink" width="64px" height="40px" xmlns="http://www.w3.org/2000/svg">
  <g transform="matrix(1 0 0 1 -263 -648 )">
    <path d="M 263.5 652  A 3.5 3.5 0 0 1 267 648.5 L 323 648.5  A 3.5 3.5 0 0 1 326.5 652 L 326.5 684  A 3.5 3.5 0 0 1 323 687.5 L 267 687.5  A 3.5 3.5 0 0 1 263.5 684 L 263.5 652  Z " fill-rule="nonzero" fill="#ffffff" stroke="none" fill-opacity="0.09803921568627451" />
    <path d="M 263.5 652  A 3.5 3.5 0 0 1 267 648.5 L 323 648.5  A 3.5 3.5 0 0 1 326.5 652 L 326.5 684  A 3.5 3.5 0 0 1 323 687.5 L 267 687.5  A 3.5 3.5 0 0 1 263.5 684 L 263.5 652  Z " stroke-width="1" stroke="#e4e4e4" fill="none" />
  </g>
</svg>