<?xml version="1.0" encoding="utf-8"?>
<svg version="1.1" xmlns:xlink="http://www.w3.org/1999/xlink" width="16px" height="16px" xmlns="http://www.w3.org/2000/svg">
  <g transform="matrix(1 0 0 1 -26 -63 )">
    <path d="M 34 63  C 38.480000000000004 63  42 66.52  42 71  C 42 75.48  38.480000000000004 79  34 79  C 29.52 79  26 75.48  26 71  C 26 66.52  29.52 63  34 63  Z " fill-rule="nonzero" fill="#ffffff" stroke="none" />
    <path d="M 34 63.5  C 38.2 63.5  41.5 66.8  41.5 71  C 41.5 75.2  38.2 78.5  34 78.5  C 29.8 78.5  26.5 75.2  26.5 71  C 26.5 66.8  29.8 63.5  34 63.5  Z " stroke-width="1" stroke="#797979" fill="none" />
  </g>
</svg>