<?xml version="1.0" encoding="utf-8"?>
<svg version="1.1" xmlns:xlink="http://www.w3.org/1999/xlink" width="46px" height="19px" xmlns="http://www.w3.org/2000/svg">
  <defs>
    <mask fill="white" id="clip589">
      <path d="M 0 14  L 0 5  C 0 2.1999999999999886  2.2000000000000455 0  5 0  L 25.999999999999996 0  L 33.20000000000073 0  L 41 0  C 43.799999999999955 0  46 2.1999999999999886  46 5  L 46 14  C 46 16.80000000000001  43.799999999999955 19  41 19  L 5 19  C 2.2000000000000455 19  0 16.80000000000001  0 14  Z " fill-rule="evenodd" />
    </mask>
  </defs>
  <g transform="matrix(1 0 0 1 -1047 -328 )">
    <path d="M 0 14  L 0 5  C 0 2.1999999999999886  2.2000000000000455 0  5 0  L 25.999999999999996 0  L 33.20000000000073 0  L 41 0  C 43.799999999999955 0  46 2.1999999999999886  46 5  L 46 14  C 46 16.80000000000001  43.799999999999955 19  41 19  L 5 19  C 2.2000000000000455 19  0 16.80000000000001  0 14  Z " fill-rule="nonzero" fill="#ffffff" stroke="none" transform="matrix(1 0 0 1 1047 328 )" />
    <path d="M 0 14  L 0 5  C 0 2.1999999999999886  2.2000000000000455 0  5 0  L 25.999999999999996 0  L 33.20000000000073 0  L 41 0  C 43.799999999999955 0  46 2.1999999999999886  46 5  L 46 14  C 46 16.80000000000001  43.799999999999955 19  41 19  L 5 19  C 2.2000000000000455 19  0 16.80000000000001  0 14  Z " stroke-width="2" stroke="#797979" fill="none" transform="matrix(1 0 0 1 1047 328 )" mask="url(#clip589)" />
  </g>
</svg>