<?xml version="1.0" encoding="utf-8"?>
<svg version="1.1" xmlns:xlink="http://www.w3.org/1999/xlink" width="375px" height="200px" xmlns="http://www.w3.org/2000/svg">
  <g>
    <path d="M 0 0  L 375 0  L 375 200  L 0 200  L 0 0  " fill-rule="nonzero" fill="#cccccc" stroke="none" />
    <path d="M 14 14  L 361 14  L 361 186  L 14 186  L 14 14  " fill-rule="nonzero" fill="#ffffff" stroke="none" />
    <path d="M 210 60  C 201.6 60  195 53.4  195 45  C 195 36.6  201.6 30  210 30  C 218.4 30  225 36.6  225 45  C 225 53.4  218.4 60  210 60  " fill-rule="nonzero" fill="#cccccc" stroke="none" />
    <path d="M 19 181  L 19 91.89999999999999  L 103.25 51.400000000000006  L 221.2 129.16  L 288.6 75.7  L 356 129.16  L 356 181  L 19 181  " fill-rule="nonzero" fill="#169bd5" stroke="none" />
  </g>
</svg>