<?xml version="1.0" encoding="utf-8"?>
<svg version="1.1" xmlns:xlink="http://www.w3.org/1999/xlink" width="95px" height="107px" xmlns="http://www.w3.org/2000/svg">
  <g transform="matrix(1 0 0 1 -20 -487 )">
    <path d="M 20 487  L 115 487  L 115 594  L 20 594  L 20 487  " fill-rule="nonzero" fill="#cccccc" stroke="none" />
    <path d="M 27 494  L 108 494  L 108 587  L 27 587  L 27 494  " fill-rule="nonzero" fill="#ffffff" stroke="none" />
    <path d="M 76.525 517.3  C 72.53500000000001 517.3  69.4 514.165  69.4 510.17499999999995  C 69.4 506.185  72.53500000000001 503.05  76.525 503.05  C 80.515 503.05  83.65 506.185  83.65 510.17499999999995  C 83.65 514.165  80.515 517.3  76.525 517.3  " fill-rule="nonzero" fill="#cccccc" stroke="none" />
    <path d="M 30 585  L 30 536.6  L 49 514.6  L 75.6 532.2  L 90.80000000000001 527.8  L 106 532.2  L 106 585  L 30 585  " fill-rule="nonzero" fill="#169bd5" stroke="none" />
  </g>
</svg>